<?xml version="1.0"?>
<!--?xml version="1.0" encoding="utf-8"?--><!-- Generator: Adobe Illustrator 18.1.0, SVG Export Plug-In . SVG Version: 6.00 Build 0) --> <svg version="1.1" id="Layer_1" xmlns="http://www.w3.org/2000/svg" xmlns:xlink="http://www.w3.org/1999/xlink" x="0px" y="0px" viewBox="0 0 60 60" enable-background="new 0 0 60 60" xml:space="preserve" width="60" height="60"> <g> <path fill="#45103e" d="M30,36c3.3,0,6-2.7,6-6c0-1.3-0.4-2.5-1.1-3.5C33.8,25,32,24,30,24s-3.8,1-4.9,2.5c-0.7,1-1.1,2.2-1.1,3.5
C24,33.3,26.7,36,30,36z"></path> <path fill="#45103e" d="M30,0C13.4,0,0,13.4,0,30c0,16.6,13.4,30,30,30c16.6,0,30-13.4,30-30C60,13.4,46.6,0,30,0z M47,26.5v13.9
c0,3.6-2.9,6.6-6.6,6.6H19.6c-3.6,0-6.6-2.9-6.6-6.6V26.5v-6.9c0-3.6,2.9-6.6,6.6-6.6h20.9c3.6,0,6.6,2.9,6.6,6.6V26.5z"></path> <polygon fill="#45103e" points="43.1,22.7 43.1,17.7 43.1,16.9 42.3,16.9 37.3,16.9 37.3,22.7 "></polygon> <path fill="#45103e" d="M39.3,30c0,5.1-4.2,9.3-9.3,9.3c-5.1,0-9.3-4.2-9.3-9.3c0-1.2,0.2-2.4,0.7-3.5h-5.1v13.9
c0,1.8,1.5,3.3,3.3,3.3h20.9c1.8,0,3.3-1.5,3.3-3.3V26.5h-5.1C39.1,27.6,39.3,28.8,39.3,30z"></path> </g> </svg>
