<?xml version="1.0"?>
<!--?xml version="1.0" encoding="utf-8"?--><!-- Generator: Adobe Illustrator 18.1.1, SVG Export Plug-In . SVG Version: 6.00 Build 0) --> <svg version="1.1" id="Layer_1" xmlns="http://www.w3.org/2000/svg" xmlns:xlink="http://www.w3.org/1999/xlink" x="0px" y="0px" viewBox="0 0 32 32" enable-background="new 0 0 32 32" xml:space="preserve" width="32" height="32"> <path fill="#45103e" d="M14.1,8.5L14.1,8.5L14.1,8.5L14.1,8.5z"></path> <path fill="#45103e" d="M11.3,22.1L11.3,22.1c-0.1-0.1-0.1-0.1-0.2-0.2C11.1,22.1,11.3,22.1,11.3,22.1z"></path> <path fill="#45103e" d="M16,0C7.1,0,0,7.1,0,16s7.1,16,16,16s16-7.1,16-16S24.9,0,16,0z M18.9,25c-0.4,0.1-0.6-0.2-0.6-0.4c0-0.3,0-1.3,0-2.5
c0-0.9-0.3-1.4-0.6-1.7c2-0.2,4.1-1,4.1-4.5c0-1-0.3-1.8-0.9-2.4c0.1-0.2,0.4-1.2-0.1-2.4c0,0-0.8-0.3-2.5,0.9
c-0.8-0.2-1.5-0.3-2.3-0.3s-1.6,0.1-2.3,0.3c-1.7-1.1-2.5-0.9-2.5-0.9c-0.5,1.2-0.2,2.2-0.1,2.4c-0.5,0.6-0.9,1.4-0.9,2.4
c0,3.5,2.1,4.3,4.1,4.5c-0.3,0.2-0.5,0.6-0.6,1.2c-0.5,0.2-1.8,0.6-2.6-0.8c0,0-0.5-0.8-1.4-0.9c0,0-0.9,0-0.1,0.6
c0,0,0.6,0.3,1,1.3c0,0,0.6,1.7,3.1,1.2c0,0.7,0,1.3,0,1.5s-0.1,0.5-0.6,0.4c-3.6-1.2-6.2-4.6-6.2-8.6c0-5,4.1-9.1,9.1-9.1
s9.1,4,9.1,9.2C25.1,20.4,22.5,23.8,18.9,25z"></path> <g fill="#45103e" id="Layer_2"> <g fill="#45103e" id="Layer_2_1_"> </g> </g> </svg> 
