<?xml version="1.0"?>

<!-- Generator: Adobe Illustrator 21.1.0, SVG Export Plug-In . SVG Version: 6.00 Build 0) --> <svg version="1.1" id="Layer_3" xmlns="http://www.w3.org/2000/svg" xmlns:xlink="http://www.w3.org/1999/xlink" x="0px" y="0px" viewBox="0 0 1767.3 1755" style="enable-background:new 0 0 1767.3 1755;" xml:space="preserve" width="1767.3" height="1755">
<style type="text/css"> .st0{fill:none;stroke:#B61538;stroke-width:4;stroke-linecap:round;stroke-linejoin:round;stroke-miterlimit:10;} .st1{fill:#B61538;}
</style>
<g> <polygon class="st0" points="376.3,429.4 635.2,20 976,316.5 1141.9,276.7 1418.5,529 1655.3,546.7 1564.6,1053.4 1279.1,1215 1294.6,1573.4 1040.1,1735 845.4,1442.9 522.3,1465 345.3,1219.4 20,1203.9 389.6,836.6 532.9,621.4 779,520.1 679.4,205.9 "></polygon> <polyline class="st0" points="1747.3,704.5 1611,794.1 1301.3,752.5 1418.5,529 1433.3,429.4 "></polyline> <polyline class="st0" points="1564.6,1053.4 1301.3,752.5 1655.3,546.7 "></polyline> <polyline class="st0" points="1301.3,752.5 1141.9,276.7 1031.3,787.9 976,316.5 967.3,176.5 "></polyline> <polyline class="st0" points="635.2,20 679.4,205.9 976,316.5 779,520.1 1031.3,787.9 1279.1,1215 1425.3,1334.5 "></polyline> <polyline class="st0" points="811.3,1632.5 845.4,1442.9 1294.6,1573.4 1004.7,1175.1 1031.3,787.9 "></polyline> <polyline class="st0" points="522.3,1465 1004.7,1175.1 633,1122 522.3,1465 845.4,1442.9 1004.7,1175.1 1279.1,1215 1301.3,752.5 1031.3,787.9 825.5,980.4 376.3,429.4 389.6,836.6 345.3,1219.4 349.7,1392 "></polyline> <polyline class="st0" points="345.3,1219.4 633,1122 825.5,980.4 1004.7,1175.1 "></polyline> <polyline class="st0" points="779,520.1 825.5,980.4 389.6,836.6 633,1122 "></polyline>
</g>
<circle class="st1" cx="635.2" cy="20" r="20"></circle>
<circle class="st1" cx="679.7" cy="206.3" r="20"></circle>
<circle class="st1" cx="376.5" cy="429.4" r="20"></circle>
<circle class="st1" cx="967.3" cy="176.5" r="20"></circle>
<circle class="st1" cx="1142.2" cy="276.6" r="20"></circle>
<circle class="st1" cx="389.6" cy="836.7" r="20"></circle>
<circle class="st1" cx="20" cy="1204.1" r="20"></circle>
<circle class="st1" cx="345.3" cy="1219.4" r="20"></circle>
<circle class="st1" cx="349.8" cy="1393.3" r="20"></circle>
<circle class="st1" cx="522.2" cy="1465" r="20"></circle>
<circle class="st1" cx="845.8" cy="1442.9" r="20"></circle>
<circle class="st1" cx="811.3" cy="1632.5" r="20"></circle>
<circle class="st1" cx="1042.9" cy="1735" r="20"></circle>
<circle class="st1" cx="1294.6" cy="1574.6" r="20"></circle>
<circle class="st1" cx="1004.7" cy="1176.2" r="20"></circle>
<circle class="st1" cx="1281.3" cy="1216.2" r="20"></circle>
<circle class="st1" cx="1430.3" cy="1334.5" r="20"></circle>
<circle class="st1" cx="635.2" cy="1122" r="20"></circle>
<circle class="st1" cx="825.8" cy="980.4" r="20"></circle>
<circle class="st1" cx="1030.2" cy="787.9" r="20"></circle>
<circle class="st1" cx="1301.3" cy="755.1" r="20"></circle>
<circle class="st1" cx="1565.2" cy="1053.4" r="20"></circle>
<circle class="st1" cx="1747.3" cy="704.8" r="20"></circle>
<circle class="st1" cx="1655.3" cy="546.7" r="20"></circle>
<circle class="st1" cx="1609.9" cy="794.1" r="20"></circle>
<circle class="st1" cx="975.4" cy="316.6" r="20"></circle>
<circle class="st1" cx="778.6" cy="520.1" r="20"></circle>
<circle class="st1" cx="532.5" cy="621.4" r="20"></circle>
<circle class="st1" cx="1435.1" cy="429.4" r="20"></circle>
<circle class="st1" cx="1419" cy="526.7" r="20"></circle>
</svg>
