<?xml version="1.0"?>

<!-- Generator: Adobe Illustrator 21.1.0, SVG Export Plug-In . SVG Version: 6.00 Build 0) --> <svg version="1.1" id="Layer_1" xmlns="http://www.w3.org/2000/svg" xmlns:xlink="http://www.w3.org/1999/xlink" x="0px" y="0px" viewBox="0 0 1259.4 781.6" style="enable-background:new 0 0 1259.4 781.6;" xml:space="preserve" width="1259.4" height="781.6">
<style type="text/css"> .st0{fill:#32092C;}
</style>
<path class="st0" d="M1258.1,217.4c-2.5-3.7-7.4-4.6-11.1-2.2c-1.4,1-2.4,2.3-3,3.7l-190.4-52.8l0-0.2c0-0.2,0-0.2,0.1-0.4l-0.1,0 c0.3-1.9-0.1-3.9-1.3-5.6c-2.5-3.7-7.4-4.6-11.1-2.2c-2.9,2-4.1,5.6-3.2,8.8l-155.8,51.7c-1-2-3-3.8-5.6-4.3 c-3.1-0.6-6.1,0.7-7.7,3.2l-185.5-99.4c0.1-0.4,0.3-0.6,0.4-1.1c0.8-4.2-2.1-8.4-6.3-9.2c-0.2,0-0.7-0.1-0.9-0.2l0,0.1 c-3.4-0.2-6.3,1.8-7.8,4.8L478.6,59.5c0.1-0.5,0.2-1,0.2-1.6c0-4.6-3.7-8.3-8.3-8.3s-8.3,3.7-8.3,8.3c0,0.7,0.1,1.3,0.2,1.9 l-155.5,51.6c-1-2-3-3.8-5.6-4.3c-3.1-0.6-6.1,0.7-7.7,3.2L108.3,11.2c0.3-0.9,0.5-1.9,0.5-2.9c0-4.6-3.7-8.3-8.3-8.3 s-8.3,3.7-8.3,8.3s3.7,8.3,8.3,8.3c0.4,0,0.7,0,1.1-0.1l31.9,122.1c-2.2,1-4.2,3.1-4.7,5.8c-0.2,1.1-0.2,2,0.1,3l-52.2,18.4 c-1.4-2.8-4.2-4.7-7.5-4.7c-4.6,0-8.3,3.7-8.3,8.3s3.7,8.3,8.3,8.3s8.3-3.7,8.3-8.3c0-0.5,0-0.9-0.1-1.4l52.2-18.2 c0.3,0.7,0.7,1.3,1.3,1.8L59.6,244c-1.3-0.8-2.8-1.3-4.5-1.3c-4.6,0-8.3,3.7-8.3,8.3s3.7,8.3,8.3,8.3c0.8,0,1.6-0.1,2.4-0.4 l44.8,117.9c-2,1-3.5,3-4,5.5c-0.1,0.4-0.2,0.9,0,1.4L34,391.8c-1-3.4-4.2-5.9-8-5.9c-4.6,0-8.3,3.7-8.3,8.3c0,4.6,3.7,8.3,8.3,8.3 s8.3-3.7,8.3-8.3c0,0,0-0.1,0-0.1l64.1-8.1c0.2,1.2,1,2.2,1.7,3.3L13,496.2c-1.3-0.9-2.9-1.4-4.7-1.4c-4.6,0-8.3,3.7-8.3,8.3 s3.7,8.3,8.3,8.3c2.2,0,4.3-0.9,5.8-2.3l87.1,74.1c-0.9,1.3-1.4,2.9-1.4,4.7c0,4.6,3.7,8.3,8.3,8.3s8.3-3.7,8.3-8.3 c0-0.7-0.1-1.3-0.2-2l133.5-47c0.7,1.3,1.6,2.4,2.9,3.1L226,605.5c-0.4-0.1-0.8-0.1-1.2-0.1c-4.6,0-8.3,3.7-8.3,8.3 c0,4.6,3.7,8.3,8.3,8.3c4.6,0,8.3-3.7,8.3-8.3c0-3.4-2-6.3-5-7.6l26.5-63.3c0.2,0,0.4,0.1,0.4,0.1c2.2,0.4,4.6-0.3,6.3-1.6 l92.5,88.3c-0.9,1.3-1.5,3-1.5,4.7c0,4.6,3.7,8.3,8.3,8.3c4.5,0,8.2-3.6,8.3-8.1l97.6-12.3c0.8,2.9,3.2,5.2,6,5.7 c2.9,0.5,5.6-0.6,7.3-2.5l1.5-1.8c0.3-0.6,0.5-1.3,0.6-1.9c0.1-0.4,0.1-0.7,0.2-1.1l25.4-2.4l69.2-6.4c0.6,2.6,2.6,4.7,5.1,5.7l0,0 c0,0,0,0,0,0c0.1,0,0.1,0.1,0.2,0.1l0,0c0.2,0,0.5,0.1,0.7,0.1c2.4,0.5,4.9-0.2,6.6-2l87,74c-1.2,2.5-1.1,5.5,0.5,8 c2.5,3.7,7.4,4.6,11.1,2.2c2.5-1.7,3.7-4.4,3.5-7.2l133.6-47c0.7,1.3,1.6,2.4,2.9,3.1l-25.1,60.4c-1.7-0.1-3.4,0.3-5,1.3 c-3.7,2.5-4.6,7.4-2.2,11.1c2.5,3.7,7.4,4.6,11.1,2.2c3.7-2.5,4.6-7.4,2.2-11.1c-1-1.5-2.4-2.5-3.9-3l25.1-60c0.2,0,0.4,0.1,0.4,0.1 c2.2,0.4,4.6-0.3,6.2-1.6l92.7,88.5c0,0.1-0.1,0.2-0.1,0.3c-0.2,0.3-0.4,0.7-0.5,1.2l0.1,0c-0.5,2.1-0.2,4.5,1.1,6.4 c2.5,3.7,7.4,4.6,11.1,2.2c2-1.3,3.2-3.4,3.5-5.7l0.8,0.1l96.6-12.1c0.8,2.9,3.2,5.2,6,5.7c2.9,0.5,5.6-0.6,7.3-2.5l46.1,36.6 c-1.9,2.6-2,6.3-0.1,9.1c2.5,3.7,7.4,4.6,11.1,2.2c3.7-2.5,4.6-7.4,2.2-11.1c-2.5-3.7-7.4-4.6-11.1-2.2c-0.1,0.1-0.3,0.2-0.4,0.3 l-46.3-36.7c0.3-0.6,0.5-1.3,0.6-2c0.1-0.4,0.1-0.7,0.2-1.1l25.4-2.4l68.8-6.4c0.2,0.8,0.6,1.5,1,2.2c0.7,1.1,1.6,1.9,2.7,2.5 c0.6,0.4,1.3,0.8,2,1.1l0.1-0.3c2.1,0.5,4.4,0.2,6.3-1.1c3.7-2.5,4.6-7.4,2.2-11.1c-1.6-2.4-4.3-3.6-7-3.5l-19.7-88.3 c2.5-0.9,4.5-3.1,5-6c0.1-0.4,0.2-0.9,0-1.4l32.3-4c0.2,1.1,0.6,2.1,1.2,3.1c2.5,3.7,7.4,4.6,11.1,2.2c3.7-2.5,4.6-7.4,2.2-11.1 c-2.5-3.7-7.4-4.6-11.1-2.2c-2.1,1.4-3.3,3.6-3.5,5.9l-32.5,4.1c-0.6-1.9-1.6-3.5-3.3-4.5l63.4-133.4c2.2,0.7,4.7,0.4,6.8-1 c3.7-2.5,4.6-7.4,2.2-11.1c-1.4-2.1-3.6-3.3-6-3.5l0.1-0.3c-1.1,0-2.3,0-3.6,0.7l-29.9-51.2c0.9-1,1.8-2.4,2.1-4 c0.1-0.7,0.1-1.6,0-2.3l41.4-14.6c0.2,0.4,0.4,0.8,0.7,1.2c2.5,3.7,7.4,4.6,11.1,2.2c3.7-2.5,4.6-7.4,2.2-11.1 c-2.5-3.7-7.4-4.6-11.1-2.2c-2.6,1.7-3.8,4.7-3.5,7.6l-41.3,14.4c-0.5-1-1-2-1.8-2.6l75.6-165.3l0.1-0.3c2.2,0.6,4.6,0.3,6.6-1.1 C1259.6,226,1260.5,221,1258.1,217.4z M1243.5,221.4c0,0.7,0,1.4,0.2,2.1c0.1,0.6,0.2,1.2,0.5,1.7l-60.7,34.6 c-1.1-1.4-2.7-2.6-4.7-2.9c-2.7-0.5-5.1,0.4-7,2.1l-119.3-90c0-0.2,0.3-0.4,0.3-0.6L1243.5,221.4z M1160.5,403.9l-175.3,75.7 c-0.5-0.8-1.1-1.4-1.7-1.9l73.4-124.2c0.4,0.1,1.1,0.4,1.5,0.5c3.1,0.6,6.1-0.7,7.9-3.3l94.4,47.6c-0.1,0.4-0.4,0.8-0.5,1.5 C1159.9,401.1,1160.1,402.5,1160.5,403.9z M1198.7,466.6c0.1,0.7,0.4,1.4,0.7,2.1l-164.9,118.7c-1.2-1.1-2.6-2.1-4.1-2.4 c-1.3-0.2-2.5,0-3.7,0.2l-43.7-95c1.8-1,3.1-2.9,3.5-5.1c0-0.2,0.1-0.7,0.2-0.9L1198.7,466.6z M688.1,686.8c-1-0.7-2.2-1.2-3.4-1.4 l-2.1-186.8c2.6-0.4,5-2.3,6.2-4.8l116.2,28.7c-0.2,2.5,0.5,4.7,2.2,6.4L688.1,686.8z M673.7,490.6l-69.9,8.8l0,0.1l-35.2,4.4 c-0.6-1.9-1.6-3.5-3.3-4.5l63.6-133.8l0,0c0.2,0,0.5,0.1,0.7,0.1c1.1,0.2,2.3,0.2,3.2-0.1l44.9,118.2c-2,1-3.5,3-4,5.5 C673.6,489.6,673.6,490.1,673.7,490.6z M112.2,580.6c-0.9-0.5-1.9-0.9-2.9-1l-2.2-187.8c2.6-0.4,5-2.3,6.2-4.8l116.2,28.7 c-0.2,2.5,0.5,4.7,2.2,6.4L112.2,580.6z M63.3,252.4l141.1,2.4c0.5,3.3,3,6.1,6.3,6.7c0.4,0.1,1.1,0.2,1.6,0.1l22.8,147.3 c-1,0.3-2,0.8-2.8,1.5L62,255.8C62.6,254.8,63.1,253.7,63.3,252.4z M214.4,261.3c1.2-0.5,2.5-1.1,3.3-1.9l73.4,53.8 c-0.3,0.6-0.7,1.5-0.9,2.1c-0.5,2.9,0.6,5.6,2.7,7.4L240.3,409c-0.4-0.1-0.9-0.2-1.5-0.3c-0.4-0.1-1.1-0.2-1.6-0.1L214.4,261.3z M295,324c0.4,0.3,1.1,0.4,1.7,0.6c2.9,0.5,5.9-0.7,7.6-2.9l70.3,40.4l20.9,11.9c-0.1,0.4-0.4,0.8-0.5,1.5c-0.1,0.7,0,1.4-0.1,2 l-150.7,36c-0.2-1.2-1-2.2-1.9-3.1L295,324z M470.5,66.2c2.1,0,4-0.8,5.4-2l118.8,90c-0.3,0.6-0.7,1.5-0.9,2.4 c-0.3,1.8,0,3.5,0.7,4.9L489.9,234c-1.2-1.1-2.6-2.1-4.4-2.4c-2.2-0.4-4.1,0.1-5.9,1.2L409,155.4c0.9-1,1.3-2.3,1.6-3.6 c0.5-2.7-0.4-5.3-2.3-7.1l58.1-79.6C467.6,65.8,469,66.2,470.5,66.2z M600.5,293.3l44.6-15.7l0,0l60-21c0.3,0.7,0.7,1.3,1.3,1.8 l-71.5,92.7c-0.8-0.4-1.5-0.7-2.4-0.9c-0.2,0-0.4-0.1-0.7-0.1l0-0.2c-1.1,0-2.3,0-3.6,0.7l-29.9-51.2c0.9-1,1.8-2.4,2.1-4 C600.6,294.9,600.6,294,600.5,293.3z M708.1,259.8c0.8,0.4,1.5,0.7,2.4,0.9c1.8,0.3,3.4-0.1,4.9-0.7l66.8,95 c-1.1,1.2-2.1,2.6-2.4,4.4l0,0.2l-141.3-2.4c-0.2-1.6-1-3.4-2.1-4.5L708.1,259.8z M626,351.7c-1.4,1.1-2.6,2.7-2.9,4.7 c0.2,0.3,0.1,0.7,0.1,0.9L410.8,375c0,0,0-0.2-0.2-0.3l175.5-75.9c1.1,1.6,2.7,2.6,4.7,2.9c2,0.4,3.9,0,5.5-1.1L626,351.7z M585.1,297.1l-175.3,75.7c-0.5-0.8-1.1-1.4-1.7-1.9l73.4-124.2c0.4,0.1,1.1,0.4,1.5,0.5c3.1,0.6,6.1-0.7,7.9-3.3l94.4,47.6 c-0.1,0.4-0.4,0.8-0.5,1.5C584.5,294.2,584.7,295.6,585.1,297.1z M586.3,289.3l-94.4-47.6c0.1-0.4,0.1-0.7,0.2-1.1 c0.3-1.8,0-3.4-0.7-4.9l10-6.9l94.6-65.7c1.2,1.1,2.6,2.1,4.1,2.4l-6.9,120.7C590.3,286.1,587.8,287.3,586.3,289.3z M478.2,234.3 c-0.9,1-1.3,2.3-1.6,3.6c-0.2,1.1-0.2,2.3,0,3.5l-171.7,71.5c-0.5-0.8-0.9-1.3-1.7-1.9l96.7-153.1c0.7,0.1,1.1,0.2,1.8,0.3 c2.2,0.4,4.1-0.1,5.9-1.2L478.2,234.3z M305.7,319.7c0.1-0.4,0.4-0.8,0.5-1.5c0-1.1,0-2.3-0.3-3.5l171.7-71.5 c0.5,0.8,1.1,1.6,1.9,2.2l-73.4,124.2c-0.4-0.1-1.1-0.4-1.5-0.5c-2.9-0.5-5.9,0.7-7.6,2.9L305.7,319.7z M410.9,378.3 c0-0.2,0.1-0.7,0.2-0.9l212.3-17.7c0.1,0.7,0.5,1.2,0.8,2L459,480.5c-1.2-1.1-2.6-2.1-4.1-2.4c-1.3-0.2-2.5,0-3.7,0.2l-43.7-95 C409.2,382.3,410.5,380.5,410.9,378.3z M625.4,363.7c0.4,0.3,0.8,0.8,1.4,1.2L563,498.5c-0.2,0-0.7-0.1-0.9-0.2 c-4-0.7-7.6,1.6-8.8,5.3l-92.1-17.1c0-1.4-0.2-2.8-0.9-3.8L625.4,363.7z M634.8,364.8c0.5-0.1,0.8-0.5,1-0.7l170.4,154.8 c-0.3,0.4-0.6,1-0.7,1.5l-116.2-28.7c0.3-4.1-2.2-7.8-6.4-8.5c-1.1-0.2-2.3-0.2-3.2,0.1L634.8,364.8z M637.3,362.5 c0.6-1,1.3-2.1,1.3-3.2l141.3,2.4c0.5,3.3,3,6.1,6.3,6.7c0.4,0.1,1.1,0.2,1.6,0.1l22.8,147.3c-1,0.3-2,0.8-2.8,1.5L637.3,362.5z M789.9,368.1c1.2-0.5,2.5-1.1,3.3-1.9l73.4,53.8c-0.3,0.6-0.7,1.5-0.9,2.1c-0.5,2.9,0.6,5.6,2.7,7.4l-52.7,86.3 c-0.4-0.1-0.9-0.2-1.5-0.3c-0.4-0.1-1.1-0.2-1.6-0.1L789.9,368.1z M870.5,430.8c0.4,0.3,1.1,0.4,1.7,0.6c2.9,0.5,5.9-0.7,7.6-2.9 l70.3,40.4l20.9,11.9c-0.1,0.4-0.4,0.8-0.5,1.5c-0.1,0.7,0,1.4-0.2,2l-150.7,36c-0.2-1.2-1-2.2-1.9-3.1L870.5,430.8z M1044.4,172.5 c2.4,0.5,4.6-0.3,6.5-1.8l119.2,90.3c-0.3,0.6-0.7,1.5-0.9,2.4c-0.3,1.8,0,3.4,0.7,4.9l-104.6,72.5c-1.2-1.1-2.6-2.1-4.4-2.4 c-2.2-0.4-4.1,0.1-5.9,1.2l-70.6-77.3c0.9-1,1.3-2.3,1.6-3.6c0.5-2.7-0.4-5.3-2.3-7.1l58.4-80C1042.9,172,1043.5,172.3,1044.4,172.5 z M1053.6,341.2c-0.9,1-1.3,2.3-1.6,3.6c-0.2,1.1-0.2,2.3,0,3.4l-171.7,71.5c-0.5-0.8-0.9-1.3-1.7-1.9l96.7-153.1 c0.7,0.1,1.1,0.2,1.8,0.3c2.2,0.4,4.2-0.1,5.9-1.2L1053.6,341.2z M881.1,426.6c0.1-0.4,0.4-0.8,0.5-1.5c0-1.1,0-2.3-0.3-3.5 l171.7-71.5c0.5,0.8,1.1,1.6,1.9,2.2l-73.4,124.2c-0.4-0.1-1.1-0.4-1.5-0.5c-2.9-0.5-5.9,0.7-7.6,2.9L881.1,426.6z M1067.3,348.5 c0.1-0.4,0.1-0.7,0.2-1.1c0.3-1.8,0-3.4-0.7-4.9l10-6.9l94.6-65.7c1.2,1.1,2.6,2.1,4.1,2.4l-6.9,120.7c-3-0.1-5.5,1-7,3.1 L1067.3,348.5z M883.2,220.5l155.9-51.7c0,0,0,0,0,0.1c0.4,0.6,0.9,1.2,1.5,1.6l-58.3,79.7c-0.6-0.3-1.5-0.7-2.1-0.9 c-3.5-0.7-6.9,1.2-8.3,4.2l-88.7-30.2C883.3,222.4,883.3,221.5,883.2,220.5z M876.2,229.8c2.6-0.4,4.7-1.9,5.8-4.2l88.7,30.2 c-0.5,2.9,0.6,5.6,2.7,7.4l-96.7,153.1c-0.6-0.3-1.1-0.4-1.7-0.6l-0.2,0L876.2,229.8z M873.7,229.8l-1.1,186c-1.6,0.2-3.4,1-4.6,2.4 l-73.4-53.8c0.3-0.6,0.7-1.5,0.9-2.1c0.5-2.9-0.6-5.6-2.7-7.4L872,229.5C872.6,229.6,873.1,229.7,873.7,229.8z M870.2,228L791,353.4 c-0.6-0.3-1.1-0.4-1.7-0.6c-1.8-0.3-3.4,0-4.9,0.7l-6.9-9.8l-60-85.2c1.1-1.2,2.1-2.6,2.4-4.4c0.1-0.7,0.2-1.1,0.1-1.8l147.8-27.8 C868.2,226,869,227.1,870.2,228z M682.3,120.2l185.6,99.1c-0.1,0.4-0.4,0.8-0.5,1.3c-0.1,0.7-0.2,1.1-0.1,1.8l-148.1,28 c-0.9-2.7-3-4.7-5.9-5.2c-0.9-0.2-1.6-0.1-2.3,0l-32-122.4C680.4,122.1,681.4,121.4,682.3,120.2z M673.8,122.9 c0.2,0,0.7,0.1,0.9,0.2c0.9,0.2,1.6,0.1,2.3,0l32,122.4c-2.2,1-4.2,3.1-4.7,5.8c-0.2,1.1-0.2,2,0.1,3l-58.6,20.6l0-0.1l-45.8,16 c-0.5-1-1-2-1.8-2.6L673.8,122.9L673.8,122.9z M669.7,120.4c0.5,0.8,1.1,1.4,2,1.7l-75.8,165.1c-0.2,0-0.4-0.3-0.6-0.3l6.9-121.2 c3.5-0.3,6.5-2.9,7.2-6.5c0.3-1.5,0.1-3-0.4-4.2L669.7,120.4z M668.2,114.6c-0.2,1.3-0.1,2.7,0.5,3.8L608,153 c-1.1-1.4-2.7-2.6-4.7-2.9c-2.7-0.5-5.1,0.4-7,2.1L477.4,62.4c0.2-0.3,0.3-0.5,0.5-0.8L668.2,114.6z M307.8,113.7l155.5-51.6 c0.4,0.7,1,1.4,1.6,2l-58,79.3c-0.6-0.3-1.5-0.7-2.1-0.9c-3.5-0.7-6.9,1.3-8.3,4.2l-88.7-30.2C307.9,115.6,307.8,114.6,307.8,113.7z M300.8,123c2.6-0.4,4.7-1.9,5.8-4.2l88.7,30.2c-0.5,2.9,0.6,5.6,2.7,7.4l-96.7,153.1c-0.6-0.3-1.1-0.4-1.7-0.5l-0.2,0L300.8,123z M298.3,123l-1.1,186c-1.6,0.2-3.4,1-4.6,2.4l-73.4-53.8c0.3-0.6,0.7-1.5,0.9-2.1c0.5-2.9-0.6-5.6-2.7-7.4l79.2-125.4 C297.2,122.8,297.6,122.8,298.3,123z M294.7,121.1l-79.2,125.4c-0.6-0.3-1.1-0.4-1.7-0.6c-1.8-0.3-3.4,0.1-4.9,0.7l-6.9-9.8 l-60-85.2c1.1-1.2,2.1-2.6,2.4-4.4c0.1-0.7,0.2-1.1,0.1-1.8l147.8-27.8C292.8,119.2,293.5,120.2,294.7,121.1z M103.7,16 c1.4-0.6,2.5-1.5,3.4-2.6l185.3,99c-0.1,0.4-0.4,0.8-0.5,1.3c-0.1,0.7-0.2,1.1-0.1,1.8l-148.1,28c-0.9-2.7-3-4.7-5.9-5.2 c-0.9-0.2-1.6-0.1-2.3,0L103.7,16z M132.7,153c0.8,0.4,1.5,0.7,2.4,0.9c1.8,0.3,3.4,0,4.9-0.7l66.8,95c-1.1,1.2-2.1,2.6-2.4,4.4 l0,0.2l-140.9-2.4c-0.2-1.9-0.9-3.6-2.2-4.9L132.7,153z M59.4,258.1c0.4-0.2,0.8-0.5,1.1-0.8L230.8,412c-0.3,0.4-0.7,1-0.7,1.5 l-116.2-28.7c0.3-4.1-2.2-7.8-6.4-8.5c-1.1-0.2-2.3-0.2-3.2,0.1L59.4,258.1z M102,390.8c0.8,0.4,1.7,0.8,2.6,0.9 c0.2,0,0.2,0,0.4,0.1l2.2,187.7c-1.6,0.2-3.1,0.8-4.4,1.8l-87.4-73.9c0.8-1.3,1.2-2.7,1.2-4.3c0-2.1-0.8-3.9-2-5.4L102,390.8z M248.9,534c-0.2,1.1-0.2,2,0.1,3l-133.7,46.8c-0.4-0.7-0.8-1.3-1.4-1.9l119.6-158.6c0.6,0.3,1.5,0.7,2.4,0.9 c0.4,0.1,1.1,0.2,1.6,0.1l16.9,103.6C251.7,528.7,249.5,530.9,248.9,534z M258.6,527.7c-0.4-0.1-1.1-0.2-1.6-0.1L240,424.1 c2.2-1,4.5-3.3,5-6.2c0.1-0.7,0-1.4,0.1-2l150.7-36c0.3,0.7,0.6,1.5,1.2,2.1L261.5,529C260.7,528.4,259.7,527.9,258.6,527.7z M398.5,383.3c0.8,0.6,1.9,1,3,1.2c1.3,0.2,2.5,0,3.7-0.2l43.7,95c-1.8,1-3.1,2.9-3.5,5.1c-0.1,0.7-0.1,1.6,0,2.3l-181.6,45.6 c-0.1-0.7-0.4-1.5-1-2L398.5,383.3z M264.5,536.6c0.1-0.7,0.1-1.6,0-2.3L446,488.7c0.5,1.2,1.2,2.3,2.2,2.9l-84,135.2 c-1.1-0.5-2.3-0.8-3.6-0.8c-1.9,0-3.7,0.7-5.1,1.7l-92.3-87.9C263.8,539,264.2,537.9,264.5,536.6z M466.5,618.9 c-0.1,0.4-0.2,0.9,0,1.4l-97.7,12.3c-0.4-1.7-1.3-3.2-2.5-4.3l84-135.1c0.6,0.3,1.1,0.4,1.7,0.5c0.4,0.1,1.1,0.2,1.6,0.1l18.4,119 C469.3,613.6,467,615.8,466.5,618.9z M576.5,608.6c-0.1,0.4-0.1,0.7-0.2,1.1l-73.9,6.9l-20.5,1.9c-0.6-2.9-3.1-5.4-6.2-6 c-0.4-0.1-1.1-0.2-1.6-0.1l-18.4-119c1-0.3,1.8-0.8,2.5-1.4l119.5,113.3C577.1,606.2,576.7,607.2,576.5,608.6z M579.2,603.8 L459.6,490.5c0.3-0.6,0.7-1.3,1.1-2.1l92.1,17.1c-0.3,3.9,2.5,7.4,6.3,8c0.7,0.1,1.4,0,2,0.2l20.1,88.8 C580.5,602.9,579.7,603.2,579.2,603.8z M588.2,603.3c-0.8-0.4-1.7-0.8-2.6-0.9c-0.2,0-0.7-0.1-0.9-0.2l0,0.1c-0.3,0-0.6,0.1-0.9,0 l-19.9-89c2.5-0.9,4.5-3.1,5-6c0.1-0.4,0.2-0.9,0-1.4l34.5-4.3l0,0.1l70.6-8.9c0.2,1.2,1,2.2,1.7,3.3L588.2,603.3z M590.8,614.1 c0.6-0.8,1-1.7,1.2-2.8c0.5-2.4-0.5-4.9-1.9-6.8l87.4-106.9c0.8,0.4,1.7,0.8,2.6,0.9c0.2,0,0.2,0,0.4,0.1l2.1,186.7 c-1.2,0.1-2.5,0.6-3.6,1.3c-0.5,0.3-0.9,0.7-1.3,1.1L590.8,614.1z M824.4,640.8c-0.2,1.1-0.2,2,0.1,3L691,690.6 c-0.2-0.6-0.5-1.2-0.9-1.7c-0.1-0.2-0.3-0.4-0.4-0.5L809,530.1c0.6,0.3,1.5,0.7,2.4,0.9c0.4,0.1,1.1,0.2,1.6,0.1l16.9,103.6 C827.2,635.6,825,637.7,824.4,640.8z M834,634.6c-0.4-0.1-1.1-0.2-1.6-0.1l-16.9-103.6c2.2-1,4.5-3.3,5-6.2c0.1-0.7,0-1.4,0.2-2 l150.7-36c0.3,0.7,0.6,1.5,1.2,2.1L837,635.8C836.2,635.2,835.1,634.8,834,634.6z M974,490.1c0.8,0.6,1.9,1,3,1.2 c1.3,0.2,2.5,0,3.7-0.2l43.7,95c-1.8,1-3.1,2.9-3.5,5.1c-0.1,0.7-0.1,1.6,0,2.3l-181.6,45.6c-0.1-0.7-0.4-1.5-1-2L974,490.1z M839.9,643.4c0.1-0.7,0.1-1.6,0-2.3l181.6-45.6c0.5,1.2,1.2,2.3,2.2,2.9l-83.6,134.5c-2.5-1.2-5.5-1-7.9,0.6 c-0.5,0.3-0.9,0.6-1.2,1l-92.3-87.9C839.2,645.8,839.7,644.8,839.9,643.4z M1041.9,725.7c-0.1,0.4-0.2,0.9,0,1.4l-97.3,12.2 c-0.1-1.3-0.6-2.5-1.3-3.6c-0.3-0.5-0.7-0.9-1.1-1.3l83.5-134.4c0.6,0.3,1.1,0.4,1.7,0.6c0.4,0.1,1.1,0.2,1.6,0.1l18.4,119 C1044.7,720.5,1042.5,722.6,1041.9,725.7z M1077.8,723.4l-20.5,1.9c-0.6-2.9-3.1-5.4-6.2-6c-0.4-0.1-1.1-0.2-1.6-0.1l-18.4-119 c1-0.3,1.8-0.8,2.5-1.4l119.2,113c-0.9,1.4-1.4,3-1.4,4.6L1077.8,723.4z M1156.6,709c-0.6,0.2-1.1,0.5-1.6,0.8 c-0.2,0.2-0.5,0.3-0.7,0.5l-119.2-112.9c0.3-0.6,0.7-1.2,1.1-2.1l92.1,17.1c-0.3,3.9,2.5,7.4,6.3,8c0.7,0.1,1.4,0,2,0.1L1156.6,709z M1138.5,605.3c-0.2,0-0.7-0.1-0.9-0.2c-4-0.7-7.6,1.6-8.8,5.3l-92.1-17.1c0-1.4-0.2-2.8-0.9-3.8l164.9-118.8 c0.4,0.5,0.9,0.9,1.4,1.2L1138.5,605.3z M1201.5,458.5c-1.4,1.1-2.6,2.7-2.9,4.7c0.2,0.3,0.1,0.7,0.1,0.9l-212.3,17.7 c0,0,0-0.2-0.2-0.3l175.5-75.9c1.1,1.6,2.7,2.6,4.7,2.9c2,0.4,3.9,0,5.5-1L1201.5,458.5z M1171.3,394c-0.2,0-0.4-0.3-0.6-0.3 l6.9-121.2c3.5-0.3,6.5-2.9,7.2-6.5c0.3-1.6,0.1-3-0.4-4.2l60.7-34.6c0.5,0.8,1.1,1.4,2,1.7L1171.3,394z"></path>
</svg>
