<?xml version="1.0"?>
<!--?xml version="1.0" encoding="utf-8"?--><!-- Generator: Adobe Illustrator 18.1.0, SVG Export Plug-In . SVG Version: 6.00 Build 0) --> <svg version="1.1" id="Layer_1" xmlns="http://www.w3.org/2000/svg" xmlns:xlink="http://www.w3.org/1999/xlink" x="0px" y="0px" viewBox="0 0 60 60" enable-background="new 0 0 60 60" xml:space="preserve" width="60" height="60"> <path fill="#45103e" d="M30,60C13.4,60,0,46.6,0,30C0,13.4,13.4,0,30,0c16.6,0,30,13.4,30,30C60,46.6,46.6,60,30,60 M47.1,21.1
c-1.3,0.6-2.6,0.9-4,1.1c1.4-0.9,2.6-2.2,3.1-3.9c-1.4,0.8-2.8,1.4-4.4,1.7c-1.3-1.4-3.1-2.2-5.1-2.2c-3.9,0-7,3.1-7,7
c0,0.5,0.1,1.1,0.2,1.6c-5.8-0.3-11-3.1-14.4-7.3c-0.6,1-0.9,2.2-0.9,3.5c0,2.4,1.2,4.6,3.1,5.8c-1.1,0-2.2-0.4-3.2-0.9v0.1
c0,3.4,2.4,6.2,5.6,6.9c-0.6,0.2-1.2,0.2-1.8,0.2c-0.5,0-0.9,0-1.3-0.1c0.9,2.8,3.5,4.8,6.5,4.9c-2.4,1.9-5.4,3-8.7,3
c-0.6,0-1.1,0-1.7-0.1c3.1,2,6.8,3.1,10.7,3.1c12.9,0,19.9-10.7,19.9-19.9c0-0.3,0-0.6,0-0.9C44.9,23.7,46.1,22.5,47.1,21.1"></path> </svg> 
