<?xml version="1.0"?>

<!-- Generator: Adobe Illustrator 21.1.0, SVG Export Plug-In . SVG Version: 6.00 Build 0) --> <svg version="1.1" id="Layer_1" xmlns="http://www.w3.org/2000/svg" xmlns:xlink="http://www.w3.org/1999/xlink" x="0px" y="0px" viewBox="0 0 3584.1 735.7" style="enable-background:new 0 0 3584.1 735.7;" xml:space="preserve" width="3584.1" height="735.7">
<style type="text/css"> .st0{fill:#32092C;}
</style>
<g> <g> <defs> <path id="SVGID_1_" d="M3041.5,200.1c-0.5,0-1.4,0-1.9,0.3l-48.4-137.9c3-1.6,5.2-4.7,5.2-8.5c0-0.5,0-1.1-0.3-1.6l114.2-36.4 c0.8,1.6,2.2,3.3,3.8,4.1l-70.5,180.3C3042.9,200.1,3042.4,200.1,3041.5,200.1 M2988.8,63.3l48.4,137.9c-1.1,0.6-1.9,1.4-2.7,2.2 L2866.7,94.8c0.5-1.1,0.8-2.5,0.8-4.1c0-0.5,0-0.8,0-1.4l86.6-24.6l24-6.8c1.4,3.3,4.9,5.7,8.7,5.7 C2987.4,63.6,2988.3,63.6,2988.8,63.3 M3126.2,18.4l130.3,84.8c-0.5,1.1-0.8,2.5-0.8,4.1c0,0.8,0.3,1.9,0.5,2.7l-206.5,94.7 c-0.8-1.4-1.9-2.5-3.3-3l70.5-180.3c0.8,0.3,1.4,0.3,2.2,0.3C3121.9,21.7,3124.6,20.3,3126.2,18.4 M2865.3,96.9l167.7,108.6 c-0.3,0.8-0.5,1.6-0.8,2.7h-113.7c-0.5-4.7-4.6-8.2-9.3-8.2c-0.8,0-1.6,0.3-2.5,0.3l-43.7-101.5 C2864,98.3,2864.8,97.8,2865.3,96.9 M3423.5,17.9c0.5,0.8,1.4,1.4,1.9,1.9l-107.6,215.9c-0.8-0.3-1.9-0.5-3-0.5 c-0.5,0-1.4,0-1.9,0.3l-43.2-119.9c3-1.6,5.2-4.7,5.2-8.5c0-1.4-0.3-2.5-0.8-3.6L3423.5,17.9 M3438.2,17.9l121.3,69.2 c-0.5,1.1-0.8,2.2-0.8,3.6c0,3,1.6,5.7,3.8,7.7l-80.6,147c-1.1-0.3-2.2-0.5-3.3-0.5c-0.3,0-0.3,0-0.5,0l-44.3-223.9 C3435.5,20.3,3437.1,19.2,3438.2,17.9 M3431.4,21.4l44.3,223.9c-3,1.1-5.5,3.8-6.3,7.1l-145.1-8.5c-0.3-3-1.6-5.5-4.1-7.1 l107.6-215.9c1.1,0.3,1.9,0.5,3,0.5C3431.1,21.4,3431.1,21.4,3431.4,21.4 M3126,319.2c-1.6,0-3,0.5-4.4,1.1l-73.2-103.7 c1.9-1.6,3-4.1,3-6.8c0-0.8-0.3-1.9-0.5-2.7l206.5-94.7c0.3,0.8,0.8,1.6,1.6,2.2L3129.8,320 C3128.7,319.4,3127.3,319.2,3126,319.2 M3266.7,116.4l43.2,119.9c-2.5,1.6-4.6,4.9-4.6,8.5c0,0.8,0.3,1.6,0.3,2.5l-171.8,76.3 c-0.5-0.8-1.1-1.6-1.9-2.2l129.2-205.5c1.1,0.5,2.5,0.8,3.8,0.8C3265.3,116.6,3266.1,116.6,3266.7,116.4 M3264.2,367.6 c-3.6,0-6.8,2.2-8.5,5.2l-92.9-32.6l-27.6-9.6c0-0.5,0.3-1.1,0.3-1.9c0-0.8-0.3-1.6-0.3-2.5l171.8-76.3c0.5,1.4,1.6,2.5,3,3.3 l-43.7,114.7C3265.8,367.6,3265,367.6,3264.2,367.6 M3032,210.8c0.3,1.6,0.8,3.3,1.9,4.4l-170.5,178.4c-0.5-0.3-1.1-0.8-1.9-1.1 l46.4-173.5c0.3,0,0.8,0,1.1,0c4.9,0,8.7-3.6,9.3-8.2H3032 M3482.5,263.1l79.8,131.4c-0.5,0.3-0.8,0.8-1.1,1.1l-237.7-147 c0.3-0.5,0.5-1.4,0.5-1.9l145.1,8.5c0.5,4.9,4.4,8.8,9.6,8.8C3480,263.9,3481.4,263.6,3482.5,263.1 M3045.9,218.2l73.2,103.7 c-1.9,1.6-3,4.1-3,6.8c0,0.3,0,0.8,0,1.1L2866.7,398c-0.3-0.8-0.8-1.4-1.4-2.2l170.8-178.4c1.6,1.1,3.6,1.9,5.5,1.9 C3043.2,219.3,3044.5,218.7,3045.9,218.2 M3316.7,254l59.8,170.8c-1.4,0.8-2.7,1.9-3.5,3l-99.4-47.9c0.3-0.8,0.5-1.9,0.5-2.7 c0-3.6-1.9-6.6-4.9-8.2l43.7-114.7c0.5,0,1.1,0,1.9,0C3315.3,254.3,3316.1,254.3,3316.7,254 M3322.1,250.7l237.7,147 c-0.5,1.4-1.1,2.7-0.8,4.1l-169.1,28.5c-1.4-3.8-4.9-6.6-9-6.6c-0.5,0-1.4,0-1.9,0.3l-59.8-170.8 C3320.2,252.7,3321.3,251.8,3322.1,250.7 M2918.3,459.8c-2.5,0-4.6,0.8-6.3,2.5l-46.7-54.2c1.4-1.6,2.5-3.8,2.5-6.3 c-0.3-0.3-0.3-0.8-0.3-1.1l249.4-68.1c0,0,0,0.3,0.3,0.3l-192.6,129.4C2923,460.6,2920.8,459.8,2918.3,459.8 M3134.2,333.1 l120.5,42.1c0,0.5-0.3,1.1-0.3,1.9c0.3,1.4,0.5,2.7,1.1,4.1l-189.1,123.4c-0.8-0.8-1.6-1.6-2.7-2.2l60.1-164.5 c0.5,0,1.4,0.3,1.9,0.3C3129.2,338.3,3132.5,336.1,3134.2,333.1 M3059,501.1c-3.8,0-7.1,2.2-8.7,5.7L2927.1,471 c0-0.5,0.3-1.1,0.3-1.9c0.3-1.6-0.3-3.3-1.1-4.9L3118.6,335c0.8,0.8,1.6,1.4,2.5,1.9l-60.1,164.5 C3060.4,501.4,3059.6,501.1,3059,501.1 M3495.1,535.4c-2.2,0-4.1,0.8-5.7,1.9l-100.8-98.5c1.1-1.6,1.9-3.6,1.9-5.7v-0.3 l169.1-28.5c0.5,1.9,1.9,3.8,3.6,4.9l-65,126.7C3497,535.6,3496.1,535.4,3495.1,535.4 M3257.1,383.2c0.8,0.8,1.4,1.4,2.5,1.9 l-81.4,204.2c-0.8,0-1.4,0-2.2,0c-2.7,0-4.9,1.1-6.8,2.7l-101.4-76.6c0.8-1.4,1.1-3,1.1-4.7c0-1.4-0.3-2.7-0.8-4.1L3257.1,383.2 M3272.1,382.4l99.4,47.9c-0.3,0.8-0.5,1.9-0.5,2.7c0,3.6,1.9,6.6,4.9,8.2l-66.7,167.2c-0.8,0-1.4,0-2.2,0l-39.9-222.2 C3269.1,385.7,3271,384.3,3272.1,382.4 M3386.3,440.9l10.4,10.1l90.4,88.4c-1.1,1.6-1.9,3.6-1.9,5.7c0,0.8,0,1.4,0.3,2.2 l-170.2,66c-0.8-1.6-1.9-2.7-3.5-3.6l66.7-167.2c0.8,0.3,1.4,0.3,2.2,0.3C3382.8,442.9,3384.7,442,3386.3,440.9 M3264.5,386.8 l39.6,222.2c-3,1.1-5.2,3.3-6,6.3l-112.6-16.4c0-3.6-1.9-6.6-4.9-8.2l81.4-204.2c0.8,0.3,1.4,0.3,2.2,0.3H3264.5 M2926.5,473.8 l123.2,35.8c0,0.5,0,0.8,0,1.4c0,2.2,0.8,4.1,1.9,5.8l-10.4,10.4l-98.4,99.3c-1.6-1.1-3.6-1.9-5.5-1.9L2918.9,479 C2922.4,478.4,2925.2,476.5,2926.5,473.8 M2915.6,478.4c0.3,0,0.5,0.3,0.8,0.3l18.6,146.1c-4.1,1.1-7.1,4.9-7.1,9.3 c0,1.9,0.5,3.6,1.4,4.9l-64.8,54.7c-0.8-0.8-1.6-1.4-2.7-1.6L2915.6,478.4 M3497.8,554l65.3,139c-1.4,1.1-2.5,2.2-3.3,3.8 l-243.4-77.2c0-0.5,0.3-1.1,0.3-1.6c0-0.8,0-1.4-0.3-2.2l170.5-66.2c1.6,3,4.6,4.9,8.2,4.9C3496.1,554.5,3497,554.2,3497.8,554 M3184.7,601.8l112.6,16.4c0,1.1,0.3,2.2,0.5,3.3l-174.6,96.3c-0.5-0.5-1.4-1.4-2.2-1.6l51.9-108.1c0.8,0.3,1.9,0.5,2.7,0.5 C3180.1,608.7,3183.6,605.7,3184.7,601.8 M3116.1,714.6c-3,0-5.5,1.4-7.4,3.6l-162.3-81.3c0.3-0.8,0.5-1.9,0.5-3 c0-2.2-0.8-4.1-1.9-5.7l108.7-109.7c1.6,1.1,3.6,1.9,5.7,1.9c2.7,0,4.9-1.1,6.8-2.7l101.4,76.6c-0.8,1.4-1.1,3-1.1,4.7 c0,3.3,1.6,6.3,4.4,7.9l-51.9,108.4C3118,714.9,3117.2,714.6,3116.1,714.6 M2945.1,639.6l162.3,81c0,0.3-0.3,0.5-0.3,0.8 l-239.6-21.1c0-1.6-0.5-3.3-1.4-4.4l64.8-54.7c1.6,1.4,3.8,2.5,6.3,2.5C2940.4,643.7,2943.2,642.1,2945.1,639.6 M3106.6,725h19.1 c0-0.3,0-0.3,0-0.5c0-1.4-0.3-2.7-0.8-4.1l174.6-96.3c1.6,2.2,4.4,3.8,7.6,3.8c3.8,0,7.1-2.2,8.5-5.5l243.4,77.4 c0,0.5-0.3,0.8-0.3,1.4c0,5.2,4.4,9.6,9.6,9.6c0.3,0,0.8,0,1.1,0v-19.2c-0.3,0-0.8,0-1.1,0c-1.1,0-1.9,0.3-2.7,0.5l-65.3-139 c2.5-1.6,4.4-4.7,4.4-7.9c0-1.4-0.3-2.5-0.8-3.6l65.6-37.8v-3.3l-66.9,38.3c-0.5-0.8-1.1-1.4-1.9-1.9l64.8-126.4 c1.1,0.3,1.9,0.5,3,0.5c0.3,0,0.8,0,1.1,0v-18.9c-0.3,0-0.8,0-1.1,0c-1.4,0-2.7,0.3-3.8,0.8L3484.7,262c2.2-1.6,3.6-4.4,3.6-7.4 c0-0.5,0-1.1-0.3-1.6l81.4-26v-3l-82.2,26.3c-0.5-1.4-1.6-2.5-2.7-3.6L3565,99.4c1.1,0.3,2.2,0.5,3.3,0.5c0.3,0,0.8,0,1.1,0V81.1 c-0.3,0-0.8,0-1.1,0c-3,0-5.7,1.4-7.4,3.8l-121-69.5c0.3-0.5,0.3-0.8,0.5-1.4h-18.6c0,0.6,0.3,0.8,0.5,1.4l-149.4,85.9 c-1.1-1.4-2.5-2.5-4.1-3l18-84.3h-2.7l-18,83.7c-0.3,0-0.5,0-0.5,0c-2.7,0-5.5,1.4-7.1,3.3l-133-87c0.3-0.6,0.3-1.3,0.3-2.2 l-14.9,1.4l-115.2,36.6c-1.6-3.3-4.9-5.5-8.5-5.5c-3.6,0-6.6,1.9-8.2,4.7l-66.1-35h-6l70.8,37.5c-0.3,0.8-0.3,1.6-0.3,2.5 c0,0.5,0,0.8,0,1.4l-29.8,8.5l-81.1,23c-1.4-3-4.4-5.2-7.6-5.7V100c0.5,0,0.8-0.3,1.4-0.3l43.4,101.8c-2.7,1.6-4.6,4.7-4.6,8.2 c0,0.5,0,1.1,0.3,1.6l-40.4,12.9v2.7l41.3-13.1c1.1,2.2,2.7,3.8,4.9,4.7l-46.2,173.8v19.2c1.4-0.3,2.7-0.5,4.1-1.6l47,54.5 c-0.8,1.4-1.6,3.3-1.6,5.2c0,0.8,0.3,1.9,0.5,2.7l-50,28.7v3.3l51.1-29.3c0.8,1.1,1.6,2.2,2.7,2.7l-53.5,214v19.2 c4.1-0.5,7.1-3.6,8.2-7.4l239.3,20.8v0.3C3106.6,724.7,3106.6,724.7,3106.6,725"></path> </defs> <use xlink:href="#SVGID_1_" style="overflow:visible;fill:#32092C;"></use> <clipPath id="SVGID_2_"> <use xlink:href="#SVGID_1_" style="overflow:visible;"></use> </clipPath> </g> <g> <defs> <path id="SVGID_3_" d="M2330.9,200.1c-0.5,0-1.4,0-1.9,0.3l-48.4-137.9c3-1.6,5.2-4.7,5.2-8.5c0-0.5,0-1.1-0.3-1.6l114.2-36.4 c0.8,1.6,2.2,3.3,3.8,4.1l-70.5,180.3C2332.3,200.1,2331.8,200.1,2330.9,200.1 M2278.2,63.3l48.4,137.9c-1.1,0.6-1.9,1.4-2.7,2.2 L2156.1,94.8c0.5-1.1,0.8-2.5,0.8-4.1c0-0.5,0-0.8,0-1.4l86.6-24.6l24-6.8c1.4,3.3,4.9,5.7,8.7,5.7 C2276.8,63.6,2277.7,63.6,2278.2,63.3 M2415.6,18.4l130.3,84.8c-0.5,1.1-0.8,2.5-0.8,4.1c0,0.8,0.3,1.9,0.5,2.7l-206.5,94.7 c-0.8-1.4-1.9-2.5-3.3-3l70.5-180.3c0.8,0.3,1.4,0.3,2.2,0.3C2411.3,21.7,2414,20.3,2415.6,18.4 M2154.7,96.9l167.7,108.6 c-0.3,0.8-0.5,1.6-0.8,2.7H2208c-0.5-4.7-4.6-8.2-9.3-8.2c-0.8,0-1.6,0.3-2.5,0.3l-43.7-101.5 C2153.4,98.3,2154.2,97.8,2154.7,96.9 M2712.9,17.9c0.5,0.8,1.4,1.4,1.9,1.9l-107.6,215.9c-0.8-0.3-1.9-0.5-3-0.5 c-0.5,0-1.4,0-1.9,0.3l-43.2-119.9c3-1.6,5.2-4.7,5.2-8.5c0-1.4-0.3-2.5-0.8-3.6L2712.9,17.9 M2727.6,17.9l121.3,69.2 c-0.5,1.1-0.8,2.2-0.8,3.6c0,3,1.6,5.7,3.8,7.7l-80.6,147c-1.1-0.3-2.2-0.5-3.3-0.5c-0.3,0-0.3,0-0.5,0l-44.3-223.9 C2724.9,20.3,2726.5,19.2,2727.6,17.9 M2720.8,21.4l44.3,223.9c-3,1.1-5.5,3.8-6.3,7.1l-145.1-8.5c-0.3-3-1.6-5.5-4.1-7.1 l107.6-215.9c1.1,0.3,1.9,0.5,3,0.5C2720.5,21.4,2720.5,21.4,2720.8,21.4 M2415.4,319.2c-1.6,0-3,0.5-4.4,1.1l-73.2-103.7 c1.9-1.6,3-4.1,3-6.8c0-0.8-0.3-1.9-0.5-2.7l206.5-94.7c0.3,0.8,0.8,1.6,1.6,2.2L2419.2,320 C2418.1,319.4,2416.7,319.2,2415.4,319.2 M2556.1,116.4l43.2,119.9c-2.5,1.6-4.6,4.9-4.6,8.5c0,0.8,0.3,1.6,0.3,2.5L2423,323.5 c-0.5-0.8-1.1-1.6-1.9-2.2l129.2-205.5c1.1,0.5,2.5,0.8,3.8,0.8C2554.7,116.6,2555.5,116.6,2556.1,116.4 M2553.6,367.6 c-3.6,0-6.8,2.2-8.5,5.2l-92.9-32.6l-27.6-9.6c0-0.5,0.3-1.1,0.3-1.9c0-0.8-0.3-1.6-0.3-2.5l171.8-76.3c0.5,1.4,1.6,2.5,3,3.3 l-43.7,114.7C2555.2,367.6,2554.4,367.6,2553.6,367.6 M2321.4,210.8c0.3,1.6,0.8,3.3,1.9,4.4l-170.5,178.4 c-0.5-0.3-1.1-0.8-1.9-1.1l46.4-173.5c0.3,0,0.8,0,1.1,0c4.9,0,8.7-3.6,9.3-8.2H2321.4 M2771.9,263.1l79.8,131.4 c-0.5,0.3-0.8,0.8-1.1,1.1l-237.7-147c0.3-0.5,0.5-1.4,0.5-1.9l145.1,8.5c0.5,4.9,4.4,8.8,9.6,8.8 C2769.4,263.9,2770.8,263.6,2771.9,263.1 M2335.3,218.2l73.2,103.7c-1.9,1.6-3,4.1-3,6.8c0,0.3,0,0.8,0,1.1L2156.1,398 c-0.3-0.8-0.8-1.4-1.4-2.2l170.8-178.4c1.6,1.1,3.6,1.9,5.5,1.9C2332.6,219.3,2333.9,218.7,2335.3,218.2 M2606.1,254l59.8,170.8 c-1.4,0.8-2.7,1.9-3.5,3l-99.4-47.9c0.3-0.8,0.5-1.9,0.5-2.7c0-3.6-1.9-6.6-4.9-8.2l43.7-114.7c0.5,0,1.1,0,1.9,0 C2604.7,254.3,2605.5,254.3,2606.1,254 M2611.5,250.7l237.7,147c-0.5,1.4-1.1,2.7-0.8,4.1l-169.1,28.5c-1.4-3.8-4.9-6.6-9-6.6 c-0.5,0-1.4,0-1.9,0.3l-59.8-170.8C2609.6,252.7,2610.7,251.8,2611.5,250.7 M2207.7,459.8c-2.5,0-4.6,0.8-6.3,2.5l-46.7-54.2 c1.4-1.6,2.5-3.8,2.5-6.3c-0.3-0.3-0.3-0.8-0.3-1.1l249.4-68.1c0,0,0,0.3,0.3,0.3L2214,462.3 C2212.4,460.6,2210.2,459.8,2207.7,459.8 M2423.6,333.1l120.5,42.1c0,0.5-0.3,1.1-0.3,1.9c0.3,1.4,0.5,2.7,1.1,4.1l-189.1,123.4 c-0.8-0.8-1.6-1.6-2.7-2.2l60.1-164.5c0.5,0,1.4,0.3,1.9,0.3C2418.6,338.3,2421.9,336.1,2423.6,333.1 M2348.4,501.1 c-3.8,0-7.1,2.2-8.7,5.7L2216.5,471c0-0.5,0.3-1.1,0.3-1.9c0.3-1.6-0.3-3.3-1.1-4.9L2408,335c0.8,0.8,1.6,1.4,2.5,1.9 l-60.1,164.5C2349.8,501.4,2349,501.1,2348.4,501.1 M2784.5,535.4c-2.2,0-4.1,0.8-5.7,1.9l-100.8-98.5c1.1-1.6,1.9-3.6,1.9-5.7 v-0.3l169.1-28.5c0.5,1.9,1.9,3.8,3.6,4.9l-65,126.7C2786.4,535.6,2785.5,535.4,2784.5,535.4 M2546.5,383.2 c0.8,0.8,1.4,1.4,2.5,1.9l-81.4,204.2c-0.8,0-1.4,0-2.2,0c-2.7,0-4.9,1.1-6.8,2.7l-101.4-76.6c0.8-1.4,1.1-3,1.1-4.7 c0-1.4-0.3-2.7-0.8-4.1L2546.5,383.2 M2561.5,382.4l99.4,47.9c-0.3,0.8-0.5,1.9-0.5,2.7c0,3.6,1.9,6.6,4.9,8.2l-66.7,167.2 c-0.8,0-1.4,0-2.2,0l-39.9-222.2C2558.5,385.7,2560.4,384.3,2561.5,382.4 M2675.7,440.9l10.4,10.1l90.4,88.4 c-1.1,1.6-1.9,3.6-1.9,5.7c0,0.8,0,1.4,0.3,2.2l-170.2,66c-0.8-1.6-1.9-2.7-3.6-3.6l66.7-167.2c0.8,0.3,1.4,0.3,2.2,0.3 C2672.2,442.9,2674.1,442,2675.7,440.9 M2553.9,386.8l39.6,222.2c-3,1.1-5.2,3.3-6,6.3l-112.6-16.4c0-3.6-1.9-6.6-4.9-8.2 l81.4-204.2c0.8,0.3,1.4,0.3,2.2,0.3H2553.9 M2215.9,473.8l123.2,35.8c0,0.5,0,0.8,0,1.4c0,2.2,0.8,4.1,1.9,5.8l-10.4,10.4 l-98.4,99.3c-1.6-1.1-3.6-1.9-5.5-1.9L2208.3,479C2211.8,478.4,2214.6,476.5,2215.9,473.8 M2205,478.4c0.3,0,0.5,0.3,0.8,0.3 l18.6,146.1c-4.1,1.1-7.1,4.9-7.1,9.3c0,1.9,0.5,3.6,1.4,4.9l-64.7,54.7c-0.8-0.8-1.6-1.4-2.7-1.6L2205,478.4 M2787.2,554 l65.3,139c-1.4,1.1-2.5,2.2-3.3,3.8l-243.4-77.2c0-0.5,0.3-1.1,0.3-1.6c0-0.8,0-1.4-0.3-2.2l170.5-66.2c1.6,3,4.6,4.9,8.2,4.9 C2785.5,554.5,2786.4,554.2,2787.2,554 M2474.1,601.8l112.6,16.4c0,1.1,0.3,2.2,0.5,3.3l-174.6,96.3c-0.5-0.5-1.4-1.4-2.2-1.6 l51.9-108.1c0.8,0.3,1.9,0.5,2.7,0.5C2469.5,608.7,2473,605.7,2474.1,601.8 M2405.5,714.6c-3,0-5.5,1.4-7.4,3.6l-162.3-81.3 c0.3-0.8,0.5-1.9,0.5-3c0-2.2-0.8-4.1-1.9-5.7l108.7-109.7c1.6,1.1,3.5,1.9,5.7,1.9c2.7,0,4.9-1.1,6.8-2.7l101.4,76.6 c-0.8,1.4-1.1,3-1.1,4.7c0,3.3,1.6,6.3,4.4,7.9l-51.9,108.4C2407.4,714.9,2406.6,714.6,2405.5,714.6 M2234.5,639.6l162.3,81 c0,0.3-0.3,0.5-0.3,0.8l-239.6-21.1c0-1.6-0.5-3.3-1.4-4.4l64.7-54.7c1.6,1.4,3.8,2.5,6.3,2.5 C2229.9,643.7,2232.6,642.1,2234.5,639.6 M2396,725h19.1c0-0.3,0-0.3,0-0.5c0-1.4-0.3-2.7-0.8-4.1l174.6-96.3 c1.6,2.2,4.4,3.8,7.6,3.8c3.8,0,7.1-2.2,8.5-5.5l243.4,77.4c0,0.5-0.3,0.8-0.3,1.4c0,5.2,4.4,9.6,9.6,9.6c0.3,0,0.8,0,1.1,0 v-19.2c-0.3,0-0.8,0-1.1,0c-1.1,0-1.9,0.3-2.7,0.5l-65.3-139c2.5-1.6,4.4-4.7,4.4-7.9c0-1.4-0.3-2.5-0.8-3.6l65.6-37.8v-3.3 l-66.9,38.3c-0.5-0.8-1.1-1.4-1.9-1.9l64.8-126.4c1.1,0.3,1.9,0.5,3,0.5c0.3,0,0.8,0,1.1,0v-18.9c-0.3,0-0.8,0-1.1,0 c-1.4,0-2.7,0.3-3.8,0.8L2774.1,262c2.2-1.6,3.6-4.4,3.6-7.4c0-0.5,0-1.1-0.3-1.6l81.4-26v-3l-82.2,26.3 c-0.5-1.4-1.6-2.5-2.7-3.6l80.6-147.2c1.1,0.3,2.2,0.5,3.3,0.5c0.3,0,0.8,0,1.1,0V81.1c-0.3,0-0.8,0-1.1,0c-3,0-5.7,1.4-7.4,3.8 l-121-69.5c0.3-0.5,0.3-0.8,0.5-1.4h-18.6c0,0.6,0.3,0.8,0.5,1.4l-149.4,85.9c-1.1-1.4-2.5-2.5-4.1-3l18-84.3h-2.7l-18,83.7 c-0.3,0-0.5,0-0.5,0c-2.7,0-5.5,1.4-7.1,3.3l-130.3-85.1c0.3-0.6,0.5-1.1,0.5-1.9l-11.7-2.9L2285,49.9c-1.6-3.3-4.9-5.5-8.5-5.5 c-3.6,0-6.6,1.9-8.2,4.7l-66.1-35h-6l70.8,37.5c-0.3,0.8-0.3,1.6-0.3,2.5c0,0.5,0,0.8,0,1.4l-29.8,8.5l-81.1,23 c-1.4-3-4.4-5.2-7.6-5.7V100c0.5,0,0.8-0.3,1.4-0.3l43.4,101.8c-2.7,1.6-4.6,4.7-4.6,8.2c0,0.5,0,1.1,0.3,1.6l-40.4,12.9v2.7 l41.3-13.1c1.1,2.2,2.7,3.8,4.9,4.7l-46.2,173.8v19.2c1.4-0.3,2.7-0.5,4.1-1.6l47,54.5c-0.8,1.4-1.6,3.3-1.6,5.2 c0,0.8,0.3,1.9,0.5,2.7l-50,28.7v3.3l51.1-29.3c0.8,1.1,1.6,2.2,2.7,2.7l-53.5,214v19.2c4.1-0.5,7.1-3.6,8.2-7.4l239.3,20.8v0.3 C2396,724.7,2396,724.7,2396,725"></path> </defs> <use xlink:href="#SVGID_3_" style="overflow:visible;fill:#32092C;"></use> <clipPath id="SVGID_4_"> <use xlink:href="#SVGID_3_" style="overflow:visible;"></use> </clipPath> </g> <g> <defs> <path id="SVGID_5_" d="M1620.3,200.1c-0.5,0-1.4,0-1.9,0.3l-48.4-137.9c3-1.6,5.2-4.7,5.2-8.5c0-0.5,0-1.1-0.3-1.6l114.2-36.4 c0.8,1.6,2.2,3.3,3.8,4.1l-70.5,180.3C1621.7,200.1,1621.2,200.1,1620.3,200.1 M1567.6,63.3l48.4,137.9c-1.1,0.6-1.9,1.4-2.7,2.2 L1445.5,94.8c0.5-1.1,0.8-2.5,0.8-4.1c0-0.5,0-0.8,0-1.4l86.6-24.6l24-6.8c1.4,3.3,4.9,5.7,8.7,5.7 C1566.2,63.6,1567.1,63.6,1567.6,63.3 M1705,18.4l130.3,84.8c-0.5,1.1-0.8,2.5-0.8,4.1c0,0.8,0.3,1.9,0.5,2.7l-206.5,94.7 c-0.8-1.4-1.9-2.5-3.3-3l70.5-180.3c0.8,0.3,1.4,0.3,2.2,0.3C1700.7,21.7,1703.4,20.3,1705,18.4 M1444.1,96.9l167.7,108.6 c-0.3,0.8-0.5,1.6-0.8,2.7h-113.7c-0.5-4.7-4.6-8.2-9.3-8.2c-0.8,0-1.6,0.3-2.5,0.3l-43.7-101.5 C1442.8,98.3,1443.6,97.8,1444.1,96.9 M2002.3,17.9c0.5,0.8,1.4,1.4,1.9,1.9l-107.6,215.9c-0.8-0.3-1.9-0.5-3-0.5 c-0.5,0-1.4,0-1.9,0.3l-43.2-119.9c3-1.6,5.2-4.7,5.2-8.5c0-1.4-0.3-2.5-0.8-3.6L2002.3,17.9 M2017,17.9l121.3,69.2 c-0.5,1.1-0.8,2.2-0.8,3.6c0,3,1.6,5.7,3.8,7.7l-80.6,147c-1.1-0.3-2.2-0.5-3.3-0.5c-0.3,0-0.3,0-0.5,0l-44.3-223.9 C2014.3,20.3,2015.9,19.2,2017,17.9 M2010.2,21.4l44.3,223.9c-3,1.1-5.5,3.8-6.3,7.1l-145.1-8.5c-0.3-3-1.6-5.5-4.1-7.1 l107.6-215.9c1.1,0.3,1.9,0.5,3,0.5C2009.9,21.4,2009.9,21.4,2010.2,21.4 M1704.8,319.2c-1.6,0-3,0.5-4.4,1.1l-73.2-103.7 c1.9-1.6,3-4.1,3-6.8c0-0.8-0.3-1.9-0.5-2.7l206.5-94.7c0.3,0.8,0.8,1.6,1.6,2.2L1708.6,320 C1707.5,319.4,1706.1,319.2,1704.8,319.2 M1845.5,116.4l43.2,119.9c-2.5,1.6-4.6,4.9-4.6,8.5c0,0.8,0.3,1.6,0.3,2.5l-171.8,76.3 c-0.5-0.8-1.1-1.6-1.9-2.2l129.2-205.5c1.1,0.5,2.5,0.8,3.8,0.8C1844.1,116.6,1844.9,116.6,1845.5,116.4 M1843,367.6 c-3.5,0-6.8,2.2-8.5,5.2l-92.9-32.6l-27.6-9.6c0-0.5,0.3-1.1,0.3-1.9c0-0.8-0.3-1.6-0.3-2.5l171.8-76.3c0.5,1.4,1.6,2.5,3,3.3 l-43.7,114.7C1844.6,367.6,1843.8,367.6,1843,367.6 M1610.8,210.8c0.3,1.6,0.8,3.3,1.9,4.4l-170.5,178.4 c-0.5-0.3-1.1-0.8-1.9-1.1l46.4-173.5c0.3,0,0.8,0,1.1,0c4.9,0,8.7-3.6,9.3-8.2H1610.8 M2061.3,263.1l79.8,131.4 c-0.5,0.3-0.8,0.8-1.1,1.1l-237.7-147c0.3-0.5,0.5-1.4,0.5-1.9l145.1,8.5c0.5,4.9,4.4,8.8,9.6,8.8 C2058.8,263.9,2060.2,263.6,2061.3,263.1 M1624.7,218.2l73.2,103.7c-1.9,1.6-3,4.1-3,6.8c0,0.3,0,0.8,0,1.1L1445.5,398 c-0.3-0.8-0.8-1.4-1.4-2.2l170.8-178.4c1.6,1.1,3.5,1.9,5.5,1.9C1622,219.3,1623.3,218.7,1624.7,218.2 M1895.5,254l59.8,170.8 c-1.4,0.8-2.7,1.9-3.6,3l-99.4-47.9c0.3-0.8,0.5-1.9,0.5-2.7c0-3.6-1.9-6.6-4.9-8.2l43.7-114.7c0.5,0,1.1,0,1.9,0 C1894.1,254.3,1894.9,254.3,1895.5,254 M1900.9,250.7l237.7,147c-0.5,1.4-1.1,2.7-0.8,4.1l-169.1,28.5c-1.4-3.8-4.9-6.6-9-6.6 c-0.5,0-1.4,0-1.9,0.3l-59.8-170.8C1899,252.7,1900.1,251.8,1900.9,250.7 M1497.1,459.8c-2.5,0-4.6,0.8-6.3,2.5l-46.7-54.2 c1.4-1.6,2.5-3.8,2.5-6.3c-0.3-0.3-0.3-0.8-0.3-1.1l249.4-68.1c0,0,0,0.3,0.3,0.3l-192.6,129.4 C1501.8,460.6,1499.6,459.8,1497.1,459.8 M1713,333.1l120.5,42.1c0,0.5-0.3,1.1-0.3,1.9c0.3,1.4,0.5,2.7,1.1,4.1l-189.1,123.4 c-0.8-0.8-1.6-1.6-2.7-2.2l60.1-164.5c0.5,0,1.4,0.3,1.9,0.3C1708,338.3,1711.3,336.1,1713,333.1 M1637.8,501.1 c-3.8,0-7.1,2.2-8.7,5.7L1505.9,471c0-0.5,0.3-1.1,0.3-1.9c0.3-1.6-0.3-3.3-1.1-4.9L1697.4,335c0.8,0.8,1.6,1.4,2.5,1.9 l-60.1,164.5C1639.2,501.4,1638.4,501.1,1637.8,501.1 M2073.9,535.4c-2.2,0-4.1,0.8-5.7,1.9l-100.8-98.5c1.1-1.6,1.9-3.6,1.9-5.7 v-0.3l169.1-28.5c0.5,1.9,1.9,3.8,3.6,4.9l-65,126.7C2075.8,535.6,2075,535.4,2073.9,535.4 M1835.9,383.2 c0.8,0.8,1.4,1.4,2.5,1.9l-81.4,204.2c-0.8,0-1.4,0-2.2,0c-2.7,0-4.9,1.1-6.8,2.7l-101.4-76.6c0.8-1.4,1.1-3,1.1-4.7 c0-1.4-0.3-2.7-0.8-4.1L1835.9,383.2 M1850.9,382.4l99.4,47.9c-0.3,0.8-0.5,1.9-0.5,2.7c0,3.6,1.9,6.6,4.9,8.2l-66.7,167.2 c-0.8,0-1.4,0-2.2,0L1846,386.2C1847.9,385.7,1849.8,384.3,1850.9,382.4 M1965.1,440.9l10.4,10.1l90.4,88.4 c-1.1,1.6-1.9,3.6-1.9,5.7c0,0.8,0,1.4,0.3,2.2l-170.2,66c-0.8-1.6-1.9-2.7-3.6-3.6l66.7-167.2c0.8,0.3,1.4,0.3,2.2,0.3 C1961.6,442.9,1963.5,442,1965.1,440.9 M1843.3,386.8l39.6,222.2c-3,1.1-5.2,3.3-6,6.3l-112.6-16.4c0-3.6-1.9-6.6-4.9-8.2 l81.4-204.2c0.8,0.3,1.4,0.3,2.2,0.3H1843.3 M1505.3,473.8l123.2,35.8c0,0.5,0,0.8,0,1.4c0,2.2,0.8,4.1,1.9,5.8l-10.4,10.4 l-98.4,99.3c-1.6-1.1-3.5-1.9-5.5-1.9L1497.7,479C1501.2,478.4,1504,476.5,1505.3,473.8 M1494.4,478.4c0.3,0,0.5,0.3,0.8,0.3 l18.6,146.1c-4.1,1.1-7.1,4.9-7.1,9.3c0,1.9,0.5,3.6,1.4,4.9l-64.8,54.7c-0.8-0.8-1.6-1.4-2.7-1.6L1494.4,478.4 M2076.6,554 l65.3,139c-1.4,1.1-2.5,2.2-3.3,3.8l-243.4-77.2c0-0.5,0.3-1.1,0.3-1.6c0-0.8,0-1.4-0.3-2.2l170.5-66.2c1.6,3,4.6,4.9,8.2,4.9 C2075,554.5,2075.8,554.2,2076.6,554 M1763.5,601.8l112.6,16.4c0,1.1,0.3,2.2,0.5,3.3L1702,717.9c-0.5-0.5-1.4-1.4-2.2-1.6 l51.9-108.1c0.8,0.3,1.9,0.5,2.7,0.5C1758.8,608.7,1762.4,605.7,1763.5,601.8 M1694.9,714.6c-3,0-5.5,1.4-7.4,3.6l-162.3-81.3 c0.3-0.8,0.5-1.9,0.5-3c0-2.2-0.8-4.1-1.9-5.7l108.7-109.7c1.6,1.1,3.6,1.9,5.7,1.9c2.7,0,4.9-1.1,6.8-2.7l101.4,76.6 c-0.8,1.4-1.1,3-1.1,4.7c0,3.3,1.6,6.3,4.4,7.9l-51.9,108.4C1696.8,714.9,1696,714.6,1694.9,714.6 M1523.9,639.6l162.3,81 c0,0.3-0.3,0.5-0.3,0.8l-239.6-21.1c0-1.6-0.5-3.3-1.4-4.4l64.8-54.7c1.6,1.4,3.8,2.5,6.3,2.5 C1519.3,643.7,1522,642.1,1523.9,639.6 M1685.4,725h19.1c0-0.3,0-0.3,0-0.5c0-1.4-0.3-2.7-0.8-4.1l174.6-96.3 c1.6,2.2,4.4,3.8,7.6,3.8c3.8,0,7.1-2.2,8.5-5.5l243.4,77.4c0,0.5-0.3,0.8-0.3,1.4c0,5.2,4.4,9.6,9.6,9.6c0.3,0,0.8,0,1.1,0 v-19.2c-0.3,0-0.8,0-1.1,0c-1.1,0-1.9,0.3-2.7,0.5l-65.3-139c2.5-1.6,4.4-4.7,4.4-7.9c0-1.4-0.3-2.5-0.8-3.6l65.6-37.8v-3.3 l-66.9,38.3c-0.5-0.8-1.1-1.4-1.9-1.9l64.7-126.4c1.1,0.3,1.9,0.5,3,0.5c0.3,0,0.8,0,1.1,0v-18.9c-0.3,0-0.8,0-1.1,0 c-1.4,0-2.7,0.3-3.8,0.8L2063.5,262c2.2-1.6,3.5-4.4,3.5-7.4c0-0.5,0-1.1-0.3-1.6l81.4-26v-3l-82.2,26.3 c-0.5-1.4-1.6-2.5-2.7-3.6l80.6-147.2c1.1,0.3,2.2,0.5,3.3,0.5c0.3,0,0.8,0,1.1,0V81.1c-0.3,0-0.8,0-1.1,0c-3,0-5.7,1.4-7.4,3.8 l-121-69.5c0.3-0.5,0.3-0.8,0.5-1.4h-18.6c0,0.6,0.3,0.8,0.5,1.4l-149.4,85.9c-1.1-1.4-2.5-2.5-4.1-3l18-84.3h-2.7l-18,83.7 c-0.3,0-0.5,0-0.5,0c-2.7,0-5.5,1.4-7.1,3.3l-130.3-85.1c0.3-0.6,0.5-1.1,0.5-1.9l-11.8-2.9l-121.3,38.8 c-1.6-3.3-4.9-5.5-8.5-5.5c-3.6,0-6.6,1.9-8.2,4.7l-66.1-35h-6l70.8,37.5c-0.3,0.8-0.3,1.6-0.3,2.5c0,0.5,0,0.8,0,1.4l-29.8,8.5 l-81.1,23c-1.4-3-4.4-5.2-7.6-5.7V100c0.5,0,0.8-0.3,1.4-0.3l43.4,101.8c-2.7,1.6-4.6,4.7-4.6,8.2c0,0.5,0,1.1,0.3,1.6 l-40.4,12.9v2.7l41.3-13.1c1.1,2.2,2.7,3.8,4.9,4.7l-46.2,173.8v19.2c1.4-0.3,2.7-0.5,4.1-1.6l47,54.5c-0.8,1.4-1.6,3.3-1.6,5.2 c0,0.8,0.3,1.9,0.5,2.7l-50,28.7v3.3l51.1-29.3c0.8,1.1,1.6,2.2,2.7,2.7l-53.5,214v19.2c4.1-0.5,7.1-3.6,8.2-7.4l239.3,20.8v0.3 C1685.4,724.7,1685.4,724.7,1685.4,725"></path> </defs> <use xlink:href="#SVGID_5_" style="overflow:visible;fill:#32092C;"></use> <clipPath id="SVGID_6_"> <use xlink:href="#SVGID_5_" style="overflow:visible;"></use> </clipPath> </g> <g> <defs> <path id="SVGID_7_" d="M909.7,200.1c-0.5,0-1.4,0-1.9,0.3L859.5,62.5c3-1.6,5.2-4.7,5.2-8.5c0-0.5,0-1.1-0.3-1.6l114.2-36.4 c0.8,1.6,2.2,3.3,3.8,4.1l-70.5,180.3C911.1,200.1,910.6,200.1,909.7,200.1 M857,63.3l48.4,137.9c-1.1,0.6-1.9,1.4-2.7,2.2 L734.9,94.8c0.5-1.1,0.8-2.5,0.8-4.1c0-0.5,0-0.8,0-1.4l86.6-24.6l24-6.8c1.4,3.3,4.9,5.7,8.7,5.7 C855.6,63.6,856.5,63.6,857,63.3 M994.4,18.4l130.3,84.8c-0.5,1.1-0.8,2.5-0.8,4.1c0,0.8,0.3,1.9,0.5,2.7l-206.5,94.7 c-0.8-1.4-1.9-2.5-3.3-3l70.5-180.3c0.8,0.3,1.4,0.3,2.2,0.3C990.1,21.7,992.8,20.3,994.4,18.4 M733.5,96.9l167.7,108.6 c-0.3,0.8-0.5,1.6-0.8,2.7H786.8c-0.5-4.7-4.6-8.2-9.3-8.2c-0.8,0-1.6,0.3-2.5,0.3L731.3,98.9C732.2,98.3,733,97.8,733.5,96.9 M1291.7,17.9c0.5,0.8,1.4,1.4,1.9,1.9l-107.6,215.9c-0.8-0.3-1.9-0.5-3-0.5c-0.5,0-1.4,0-1.9,0.3l-43.2-119.9 c3-1.6,5.2-4.7,5.2-8.5c0-1.4-0.3-2.5-0.8-3.6L1291.7,17.9 M1306.4,17.9l121.3,69.2c-0.5,1.1-0.8,2.2-0.8,3.6 c0,3,1.6,5.7,3.8,7.7l-80.6,147c-1.1-0.3-2.2-0.5-3.3-0.5c-0.3,0-0.3,0-0.5,0l-44.3-223.9C1303.7,20.3,1305.3,19.2,1306.4,17.9 M1299.6,21.4l44.3,223.9c-3,1.1-5.5,3.8-6.3,7.1l-145.1-8.5c-0.3-3-1.6-5.5-4.1-7.1L1296,20.9c1.1,0.3,1.9,0.5,3,0.5 C1299.3,21.4,1299.3,21.4,1299.6,21.4 M994.2,319.2c-1.6,0-3,0.5-4.4,1.1l-73.2-103.7c1.9-1.6,3-4.1,3-6.8c0-0.8-0.3-1.9-0.5-2.7 l206.5-94.7c0.3,0.8,0.8,1.6,1.6,2.2L998,320C996.9,319.4,995.5,319.2,994.2,319.2 M1134.9,116.4l43.2,119.9 c-2.5,1.6-4.6,4.9-4.6,8.5c0,0.8,0.3,1.6,0.3,2.5l-171.8,76.3c-0.5-0.8-1.1-1.6-1.9-2.2l129.2-205.5c1.1,0.5,2.5,0.8,3.8,0.8 C1133.5,116.6,1134.3,116.6,1134.9,116.4 M1132.4,367.6c-3.6,0-6.8,2.2-8.5,5.2l-92.9-32.6l-27.6-9.6c0-0.5,0.3-1.1,0.3-1.9 c0-0.8-0.3-1.6-0.3-2.5l171.8-76.3c0.5,1.4,1.6,2.5,3,3.3l-43.7,114.7C1134,367.6,1133.2,367.6,1132.4,367.6 M900.2,210.8 c0.3,1.6,0.8,3.3,1.9,4.4L731.6,393.6c-0.5-0.3-1.1-0.8-1.9-1.1L776.1,219c0.3,0,0.8,0,1.1,0c4.9,0,8.7-3.6,9.3-8.2H900.2 M1350.7,263.1l79.8,131.4c-0.5,0.3-0.8,0.8-1.1,1.1l-237.7-147c0.3-0.5,0.5-1.4,0.5-1.9l145.1,8.5c0.5,4.9,4.4,8.8,9.6,8.8 C1348.2,263.9,1349.6,263.6,1350.7,263.1 M914.1,218.2l73.2,103.7c-1.9,1.6-3,4.1-3,6.8c0,0.3,0,0.8,0,1.1L734.9,398 c-0.3-0.8-0.8-1.4-1.4-2.2l170.8-178.4c1.6,1.1,3.6,1.9,5.5,1.9C911.4,219.3,912.7,218.7,914.1,218.2 M1184.9,254l59.8,170.8 c-1.4,0.8-2.7,1.9-3.5,3l-99.4-47.9c0.3-0.8,0.5-1.9,0.5-2.7c0-3.6-1.9-6.6-4.9-8.2l43.7-114.7c0.5,0,1.1,0,1.9,0 C1183.5,254.3,1184.3,254.3,1184.9,254 M1190.3,250.7l237.7,147c-0.5,1.4-1.1,2.7-0.8,4.1l-169.1,28.5c-1.4-3.8-4.9-6.6-9-6.6 c-0.5,0-1.4,0-1.9,0.3l-59.8-170.8C1188.4,252.7,1189.5,251.8,1190.3,250.7 M786.5,459.8c-2.5,0-4.6,0.8-6.3,2.5l-46.7-54.2 c1.4-1.6,2.5-3.8,2.5-6.3c-0.3-0.3-0.3-0.8-0.3-1.1l249.4-68.1c0,0,0,0.3,0.3,0.3L792.8,462.3C791.2,460.6,789,459.8,786.5,459.8 M1002.4,333.1l120.5,42.1c0,0.5-0.3,1.1-0.3,1.9c0.3,1.4,0.5,2.7,1.1,4.1L934.6,504.7c-0.8-0.8-1.6-1.6-2.7-2.2L992,338 c0.5,0,1.4,0.3,1.9,0.3C997.4,338.3,1000.7,336.1,1002.4,333.1 M927.2,501.1c-3.8,0-7.1,2.2-8.7,5.7L795.3,471 c0-0.5,0.3-1.1,0.3-1.9c0.3-1.6-0.3-3.3-1.1-4.9L986.8,335c0.8,0.8,1.6,1.4,2.5,1.9l-60.1,164.5 C928.6,501.4,927.8,501.1,927.2,501.1 M1363.3,535.4c-2.2,0-4.1,0.8-5.7,1.9l-100.8-98.5c1.1-1.6,1.9-3.6,1.9-5.7v-0.3 l169.1-28.5c0.5,1.9,1.9,3.8,3.5,4.9l-65,126.7C1365.2,535.6,1364.3,535.4,1363.3,535.4 M1125.3,383.2c0.8,0.8,1.4,1.4,2.5,1.9 l-81.4,204.2c-0.8,0-1.4,0-2.2,0c-2.7,0-4.9,1.1-6.8,2.7L936,515.4c0.8-1.4,1.1-3,1.1-4.7c0-1.4-0.3-2.7-0.8-4.1L1125.3,383.2 M1140.3,382.4l99.4,47.9c-0.3,0.8-0.5,1.9-0.5,2.7c0,3.6,1.9,6.6,4.9,8.2l-66.7,167.2c-0.8,0-1.4,0-2.2,0l-39.9-222.2 C1137.3,385.7,1139.2,384.3,1140.3,382.4 M1254.5,440.9l10.4,10.1l90.4,88.4c-1.1,1.6-1.9,3.6-1.9,5.7c0,0.8,0,1.4,0.3,2.2 l-170.2,66c-0.8-1.6-1.9-2.7-3.5-3.6l66.7-167.2c0.8,0.3,1.4,0.3,2.2,0.3C1251,442.9,1252.9,442,1254.5,440.9 M1132.7,386.8 l39.6,222.2c-3,1.1-5.2,3.3-6,6.3l-112.6-16.4c0-3.6-1.9-6.6-4.9-8.2l81.4-204.2c0.8,0.3,1.4,0.3,2.2,0.3H1132.7 M794.7,473.8 l123.2,35.8c0,0.5,0,0.8,0,1.4c0,2.2,0.8,4.1,1.9,5.8l-10.4,10.4l-98.4,99.3c-1.6-1.1-3.6-1.9-5.5-1.9L787.1,479 C790.6,478.4,793.4,476.5,794.7,473.8 M783.8,478.4c0.3,0,0.5,0.3,0.8,0.3l18.6,146.1c-4.1,1.1-7.1,4.9-7.1,9.3 c0,1.9,0.5,3.6,1.4,4.9l-64.8,54.7c-0.8-0.8-1.6-1.4-2.7-1.6L783.8,478.4 M1366,554l65.3,139c-1.4,1.1-2.5,2.2-3.3,3.8 l-243.4-77.2c0-0.5,0.3-1.1,0.3-1.6c0-0.8,0-1.4-0.3-2.2l170.5-66.2c1.6,3,4.6,4.9,8.2,4.9C1364.3,554.5,1365.2,554.2,1366,554 M1052.9,601.8l112.6,16.4c0,1.1,0.3,2.2,0.5,3.3l-174.6,96.3c-0.5-0.5-1.4-1.4-2.2-1.6l51.9-108.1c0.8,0.3,1.9,0.5,2.7,0.5 C1048.3,608.7,1051.8,605.7,1052.9,601.8 M984.3,714.6c-3,0-5.5,1.4-7.4,3.6l-162.3-81.3c0.3-0.8,0.5-1.9,0.5-3 c0-2.2-0.8-4.1-1.9-5.7L922,518.4c1.6,1.1,3.6,1.9,5.7,1.9c2.7,0,4.9-1.1,6.8-2.7l101.4,76.6c-0.8,1.4-1.1,3-1.1,4.7 c0,3.3,1.6,6.3,4.4,7.9l-51.9,108.4C986.2,714.9,985.4,714.6,984.3,714.6 M813.3,639.6l162.3,81c0,0.3-0.3,0.5-0.3,0.8 l-239.6-21.1c0-1.6-0.5-3.3-1.4-4.4l64.8-54.7c1.6,1.4,3.8,2.5,6.3,2.5C808.6,643.7,811.4,642.1,813.3,639.6 M974.8,725h19.1 c0-0.3,0-0.3,0-0.5c0-1.4-0.3-2.7-0.8-4.1l174.6-96.3c1.6,2.2,4.4,3.8,7.6,3.8c3.8,0,7.1-2.2,8.5-5.5l243.4,77.4 c0,0.5-0.3,0.8-0.3,1.4c0,5.2,4.4,9.6,9.6,9.6c0.3,0,0.8,0,1.1,0v-19.2c-0.3,0-0.8,0-1.1,0c-1.1,0-1.9,0.3-2.7,0.5l-65.3-139 c2.5-1.6,4.4-4.7,4.4-7.9c0-1.4-0.3-2.5-0.8-3.6l65.6-37.8v-3.3l-66.9,38.3c-0.5-0.8-1.1-1.4-1.9-1.9l64.8-126.4 c1.1,0.3,1.9,0.5,3,0.5c0.3,0,0.8,0,1.1,0v-18.9c-0.3,0-0.8,0-1.1,0c-1.4,0-2.7,0.3-3.8,0.8L1352.9,262c2.2-1.6,3.6-4.4,3.6-7.4 c0-0.5,0-1.1-0.3-1.6l81.4-26v-3l-82.2,26.3c-0.5-1.4-1.6-2.5-2.7-3.6l80.6-147.2c1.1,0.3,2.2,0.5,3.3,0.5c0.3,0,0.8,0,1.1,0 V81.1c-0.3,0-0.8,0-1.1,0c-3,0-5.7,1.4-7.4,3.8l-121-69.5c0.3-0.5,0.3-0.8,0.5-1.4H1290c0,0.6,0.3,0.8,0.5,1.4l-149.4,85.9 c-1.1-1.4-2.5-2.5-4.1-3l18-84.3h-2.7l-18,83.7c-0.3,0-0.5,0-0.5,0c-2.7,0-5.5,1.4-7.1,3.3L996.3,15.9c0.3-0.6,0.5-1.1,0.5-1.9 l-17-1.3l-116,37.1c-1.6-3.3-4.9-5.5-8.5-5.5s-6.6,1.9-8.2,4.7l-66.1-35h-6l70.8,37.5c-0.3,0.8-0.3,1.6-0.3,2.5 c0,0.5,0,0.8,0,1.4l-29.8,8.5l-81.1,23c-1.4-3-4.4-5.2-7.6-5.7V100c0.5,0,0.8-0.3,1.4-0.3l43.4,101.8c-2.7,1.6-4.6,4.7-4.6,8.2 c0,0.5,0,1.1,0.3,1.6L727,224.2v2.7l41.3-13.1c1.1,2.2,2.7,3.8,4.9,4.7L727,392.2v19.2c1.4-0.3,2.7-0.5,4.1-1.6l47,54.5 c-0.8,1.4-1.6,3.3-1.6,5.2c0,0.8,0.3,1.9,0.5,2.7l-50,28.7v3.3l51.1-29.3c0.8,1.1,1.6,2.2,2.7,2.7l-53.5,214v19.2 c4.1-0.5,7.1-3.6,8.2-7.4l239.3,20.8v0.3C974.8,724.7,974.8,724.7,974.8,725"></path> </defs> <use xlink:href="#SVGID_7_" style="overflow:visible;fill:#32092C;"></use> <clipPath id="SVGID_8_"> <use xlink:href="#SVGID_7_" style="overflow:visible;"></use> </clipPath> </g> <g> <defs> <path id="SVGID_9_" d="M199.1,200.1c-0.5,0-1.4,0-1.9,0.3L148.9,62.5c3-1.6,5.2-4.7,5.2-8.5c0-0.5,0-1.1-0.3-1.6L268,15.9 c0.8,1.6,2.2,3.3,3.8,4.1l-70.5,180.3C200.5,200.1,200,200.1,199.1,200.1 M146.4,63.3l48.4,137.9c-1.1,0.6-1.9,1.4-2.7,2.2 L24.3,94.8c0.5-1.1,0.8-2.5,0.8-4.1c0-0.5,0-0.8,0-1.4l86.6-24.6l24-6.8c1.4,3.3,4.9,5.7,8.7,5.7C145,63.6,145.9,63.6,146.4,63.3 M283.8,18.4l130.3,84.8c-0.5,1.1-0.8,2.5-0.8,4.1c0,0.8,0.3,1.9,0.5,2.7l-206.5,94.7c-0.8-1.4-1.9-2.5-3.3-3l70.5-180.3 c0.8,0.3,1.4,0.3,2.2,0.3C279.5,21.7,282.2,20.3,283.8,18.4 M22.9,96.9l167.7,108.6c-0.3,0.8-0.5,1.6-0.8,2.7H76.2 c-0.5-4.7-4.6-8.2-9.3-8.2c-0.8,0-1.6,0.3-2.5,0.3L20.7,98.9C21.6,98.3,22.4,97.8,22.9,96.9 M581.1,17.9c0.5,0.8,1.4,1.4,1.9,1.9 L475.3,235.7c-0.8-0.3-1.9-0.5-3-0.5c-0.5,0-1.4,0-1.9,0.3l-43.2-119.9c3-1.6,5.2-4.7,5.2-8.5c0-1.4-0.3-2.5-0.8-3.6L581.1,17.9 M595.8,17.9l121.3,69.2c-0.5,1.1-0.8,2.2-0.8,3.6c0,3,1.6,5.7,3.8,7.7l-80.6,147c-1.1-0.3-2.2-0.5-3.3-0.5c-0.3,0-0.3,0-0.5,0 L591.5,20.9C593.1,20.3,594.7,19.2,595.8,17.9 M589,21.4l44.3,223.9c-3,1.1-5.5,3.8-6.3,7.1l-145.1-8.5c-0.3-3-1.6-5.5-4.1-7.1 L585.4,20.9c1.1,0.3,1.9,0.5,3,0.5C588.7,21.4,588.7,21.4,589,21.4 M283.6,319.2c-1.6,0-3,0.5-4.4,1.1L206,216.5 c1.9-1.6,3-4.1,3-6.8c0-0.8-0.3-1.9-0.5-2.7L415,112.3c0.3,0.8,0.8,1.6,1.6,2.2L287.4,320C286.3,319.4,284.9,319.2,283.6,319.2 M424.3,116.4l43.2,119.9c-2.5,1.6-4.6,4.9-4.6,8.5c0,0.8,0.3,1.6,0.3,2.5l-171.8,76.3c-0.5-0.8-1.1-1.6-1.9-2.2l129.2-205.5 c1.1,0.5,2.5,0.8,3.8,0.8C422.9,116.6,423.7,116.6,424.3,116.4 M421.8,367.6c-3.6,0-6.8,2.2-8.5,5.2l-92.9-32.6l-27.6-9.6 c0-0.5,0.3-1.1,0.3-1.9c0-0.8-0.3-1.6-0.3-2.5l171.8-76.3c0.5,1.4,1.6,2.5,3,3.3L424,367.9C423.4,367.6,422.6,367.6,421.8,367.6 M189.6,210.8c0.3,1.6,0.8,3.3,1.9,4.4L21,393.6c-0.5-0.3-1.1-0.8-1.9-1.1L65.5,219c0.3,0,0.8,0,1.1,0c4.9,0,8.7-3.6,9.3-8.2 H189.6 M640.1,263.1l79.8,131.4c-0.5,0.3-0.8,0.8-1.1,1.1l-237.7-147c0.3-0.5,0.5-1.4,0.5-1.9l145.1,8.5c0.5,4.9,4.4,8.8,9.6,8.8 C637.6,263.9,639,263.6,640.1,263.1 M203.5,218.2l73.2,103.7c-1.9,1.6-3,4.1-3,6.8c0,0.3,0,0.8,0,1.1L24.3,398 c-0.3-0.8-0.8-1.4-1.4-2.2l170.8-178.4c1.6,1.1,3.6,1.9,5.5,1.9C200.8,219.3,202.1,218.7,203.5,218.2 M474.3,254l59.8,170.8 c-1.4,0.8-2.7,1.9-3.5,3l-99.4-47.9c0.3-0.8,0.5-1.9,0.5-2.7c0-3.6-1.9-6.6-4.9-8.2l43.7-114.7c0.5,0,1.1,0,1.9,0 C472.9,254.3,473.7,254.3,474.3,254 M479.7,250.7l237.7,147c-0.5,1.4-1.1,2.7-0.8,4.1l-169.1,28.5c-1.4-3.8-4.9-6.6-9-6.6 c-0.5,0-1.4,0-1.9,0.3l-59.8-170.8C477.8,252.7,478.9,251.8,479.7,250.7 M75.9,459.8c-2.5,0-4.6,0.8-6.3,2.5l-46.7-54.2 c1.4-1.6,2.5-3.8,2.5-6.3c-0.3-0.3-0.3-0.8-0.3-1.1l249.4-68.1c0,0,0,0.3,0.3,0.3L82.2,462.3C80.6,460.6,78.4,459.8,75.9,459.8 M291.8,333.1l120.5,42.1c0,0.5-0.3,1.1-0.3,1.9c0.3,1.4,0.5,2.7,1.1,4.1L224,504.7c-0.8-0.8-1.6-1.6-2.7-2.2L281.4,338 c0.5,0,1.4,0.3,1.9,0.3C286.8,338.3,290.1,336.1,291.8,333.1 M216.6,501.1c-3.8,0-7.1,2.2-8.7,5.7L84.7,471 c0-0.5,0.3-1.1,0.3-1.9c0.3-1.6-0.3-3.3-1.1-4.9L276.2,335c0.8,0.8,1.6,1.4,2.5,1.9l-60.1,164.5 C218,501.4,217.2,501.1,216.6,501.1 M652.7,535.4c-2.2,0-4.1,0.8-5.7,1.9l-100.8-98.5c1.1-1.6,1.9-3.6,1.9-5.7v-0.3l169.1-28.5 c0.5,1.9,1.9,3.8,3.6,4.9l-65,126.7C654.6,535.6,653.7,535.4,652.7,535.4 M414.7,383.2c0.8,0.8,1.4,1.4,2.5,1.9l-81.4,204.2 c-0.8,0-1.4,0-2.2,0c-2.7,0-4.9,1.1-6.8,2.7l-101.4-76.6c0.8-1.4,1.1-3,1.1-4.7c0-1.4-0.3-2.7-0.8-4.1L414.7,383.2 M429.7,382.4 l99.4,47.9c-0.3,0.8-0.5,1.9-0.5,2.7c0,3.6,1.9,6.6,4.9,8.2l-66.7,167.2c-0.8,0-1.4,0-2.2,0l-39.9-222.2 C426.7,385.7,428.6,384.3,429.7,382.4 M543.9,440.9l10.4,10.1l90.4,88.4c-1.1,1.6-1.9,3.6-1.9,5.7c0,0.8,0,1.4,0.3,2.2l-170.2,66 c-0.8-1.6-1.9-2.7-3.6-3.6L536,442.6c0.8,0.3,1.4,0.3,2.2,0.3C540.4,442.9,542.3,442,543.9,440.9 M422.1,386.8L461.7,609 c-3,1.1-5.2,3.3-6,6.3l-112.6-16.4c0-3.6-1.9-6.6-4.9-8.2l81.4-204.2c0.8,0.3,1.4,0.3,2.2,0.3H422.1 M84.1,473.8l123.2,35.8 c0,0.5,0,0.8,0,1.4c0,2.2,0.8,4.1,1.9,5.8l-10.4,10.4l-98.4,99.3c-1.6-1.1-3.6-1.9-5.5-1.9L76.5,479 C80,478.4,82.8,476.5,84.1,473.8 M73.2,478.4c0.3,0,0.5,0.3,0.8,0.3l18.6,146.1c-4.1,1.1-7.1,4.9-7.1,9.3c0,1.9,0.5,3.6,1.4,4.9 l-64.7,54.7c-0.8-0.8-1.6-1.4-2.7-1.6L73.2,478.4 M655.4,554l65.3,139c-1.4,1.1-2.5,2.2-3.3,3.8L474,619.6c0-0.5,0.3-1.1,0.3-1.6 c0-0.8,0-1.4-0.3-2.2l170.5-66.2c1.6,3,4.6,4.9,8.2,4.9C653.7,554.5,654.6,554.2,655.4,554 M342.3,601.8l112.6,16.4 c0,1.1,0.3,2.2,0.5,3.3l-174.6,96.3c-0.5-0.5-1.4-1.4-2.2-1.6l51.9-108.1c0.8,0.3,1.9,0.5,2.7,0.5 C337.7,608.7,341.2,605.7,342.3,601.8 M273.7,714.6c-3,0-5.5,1.4-7.4,3.6l-162.3-81.3c0.3-0.8,0.5-1.9,0.5-3 c0-2.2-0.8-4.1-1.9-5.7l108.7-109.7c1.6,1.1,3.5,1.9,5.7,1.9c2.7,0,4.9-1.1,6.8-2.7l101.4,76.6c-0.8,1.4-1.1,3-1.1,4.7 c0,3.3,1.6,6.3,4.4,7.9l-51.9,108.4C275.6,714.9,274.8,714.6,273.7,714.6 M102.7,639.6l162.3,81c0,0.3-0.3,0.5-0.3,0.8 L25.1,700.4c0-1.6-0.5-3.3-1.4-4.4l64.7-54.7c1.6,1.4,3.8,2.5,6.3,2.5C98.1,643.7,100.8,642.1,102.7,639.6 M264.2,725h19.1 c0-0.3,0-0.3,0-0.5c0-1.4-0.3-2.7-0.8-4.1L457,624c1.6,2.2,4.4,3.8,7.6,3.8c3.8,0,7.1-2.2,8.5-5.5l243.4,77.4 c0,0.5-0.3,0.8-0.3,1.4c0,5.2,4.4,9.6,9.6,9.6c0.3,0,0.8,0,1.1,0v-19.2c-0.3,0-0.8,0-1.1,0c-1.1,0-1.9,0.3-2.7,0.5l-65.3-139 c2.5-1.6,4.4-4.7,4.4-7.9c0-1.4-0.3-2.5-0.8-3.6l65.6-37.8v-3.3L660,538.9c-0.5-0.8-1.1-1.4-1.9-1.9l64.8-126.4 c1.1,0.3,1.9,0.5,3,0.5c0.3,0,0.8,0,1.1,0v-18.9c-0.3,0-0.8,0-1.1,0c-1.4,0-2.7,0.3-3.8,0.8L642.3,262c2.2-1.6,3.6-4.4,3.6-7.4 c0-0.5,0-1.1-0.3-1.6l81.4-26v-3l-82.2,26.3c-0.5-1.4-1.6-2.5-2.7-3.6l80.6-147.2c1.1,0.3,2.2,0.5,3.3,0.5c0.3,0,0.8,0,1.1,0 V81.1c-0.3,0-0.8,0-1.1,0c-3,0-5.7,1.4-7.4,3.8l-121-69.5c0.3-0.5,0.3-0.8,0.5-1.4h-18.6c0,0.6,0.3,0.8,0.5,1.4l-149.4,85.9 c-1.1-1.4-2.5-2.5-4.1-3l18-84.3h-2.7l-18,83.7c-0.3,0-0.5,0-0.5,0c-2.7,0-5.5,1.4-7.1,3.3L285.7,15.9c0.3-0.6,0.5-1.1,0.5-1.9 l-18.4-0.6L153.2,49.9c-1.6-3.3-4.9-5.5-8.5-5.5c-3.6,0-6.6,1.9-8.2,4.7L70.5,14h-6l70.8,37.5c-0.3,0.8-0.3,1.6-0.3,2.5 c0,0.5,0,0.8,0,1.4l-29.8,8.5L24,86.8c-1.4-3-4.4-5.2-7.6-5.7V100c0.5,0,0.8-0.3,1.4-0.3l43.4,101.8c-2.7,1.6-4.6,4.7-4.6,8.2 c0,0.5,0,1.1,0.3,1.6l-40.4,12.9v2.7l41.3-13.1c1.1,2.2,2.7,3.8,4.9,4.7L16.4,392.2v19.2c1.4-0.3,2.7-0.5,4.1-1.6l47,54.5 c-0.8,1.4-1.6,3.3-1.6,5.2c0,0.8,0.3,1.9,0.5,2.7l-50,28.7v3.3l51.1-29.3c0.8,1.1,1.6,2.2,2.7,2.7l-53.5,214v19.2 c4.1-0.5,7.1-3.6,8.2-7.4l239.3,20.8v0.3C264.2,724.7,264.2,724.7,264.2,725"></path> </defs> <use xlink:href="#SVGID_9_" style="overflow:visible;fill:#32092C;"></use> <clipPath id="SVGID_10_"> <use xlink:href="#SVGID_9_" style="overflow:visible;"></use> </clipPath> </g>
</g>
<circle class="st0" cx="16.4" cy="90.5" r="10.7"></circle>
<circle class="st0" cx="16.4" cy="224.4" r="10.7"></circle>
<circle class="st0" cx="16.4" cy="401.7" r="10.7"></circle>
<circle class="st0" cx="10.7" cy="502.7" r="10.7"></circle>
<circle class="st0" cx="16.4" cy="700.5" r="10.7"></circle>
<circle class="st0" cx="273.9" cy="725" r="10.7"></circle>
<circle class="st0" cx="727" cy="701" r="10.7"></circle>
<circle class="st0" cx="984" cy="725" r="10.7"></circle>
<circle class="st0" cx="276.4" cy="11" r="11"></circle>
<circle class="st0" cx="68" cy="10.7" r="10.7"></circle>
<circle class="st0" cx="442.5" cy="14" r="10.7"></circle>
<circle class="st0" cx="588.8" cy="13" r="10.7"></circle>
<circle class="st0" cx="778.1" cy="13" r="10.7"></circle>
<circle class="st0" cx="987.4" cy="11.5" r="10.7"></circle>
<circle class="st0" cx="1694.7" cy="725" r="10.7"></circle>
<circle class="st0" cx="2148.2" cy="701.4" r="10.7"></circle>
<circle class="st0" cx="2405.7" cy="725" r="10.7"></circle>
<circle class="st0" cx="2858.8" cy="701" r="10.7"></circle>
<circle class="st0" cx="3116" cy="725" r="10.7"></circle>
<circle class="st0" cx="3569.4" cy="701" r="10.7"></circle>
<circle class="st0" cx="3569.4" cy="502.7" r="10.7"></circle>
<circle class="st0" cx="3569.4" cy="402" r="10.7"></circle>
<circle class="st0" cx="3573.4" cy="224.3" r="10.7"></circle>
<circle class="st0" cx="3569.4" cy="90.6" r="10.7"></circle>
<circle class="st0" cx="3430.5" cy="11.1" r="10.7"></circle>
<circle class="st0" cx="3118.4" cy="11.1" r="10.7"></circle>
<circle class="st0" cx="2911" cy="11.1" r="10.7"></circle>
<circle class="st0" cx="2720.4" cy="11.1" r="10.7"></circle>
<circle class="st0" cx="2575" cy="11.1" r="10.7"></circle>
<circle class="st0" cx="2409" cy="11.1" r="10.7"></circle>
<circle class="st0" cx="2199.7" cy="11.1" r="10.7"></circle>
<circle class="st0" cx="2010" cy="11.1" r="10.7"></circle>
<circle class="st0" cx="1864.7" cy="11.1" r="10.7"></circle>
<circle class="st0" cx="1698" cy="11.1" r="10.7"></circle>
<circle class="st0" cx="1490" cy="11.1" r="10.7"></circle>
<circle class="st0" cx="1299" cy="11.1" r="10.7"></circle>
<circle class="st0" cx="1154.4" cy="11.1" r="10.7"></circle>
</svg>
