<?xml version="1.0" encoding="utf-8"?>
<!-- Generator: Adobe Illustrator 21.0.0, SVG Export Plug-In . SVG Version: 6.00 Build 0)  -->
<!DOCTYPE svg PUBLIC "-//W3C//DTD SVG 1.1//EN" "http://www.w3.org/Graphics/SVG/1.1/DTD/svg11.dtd">
<svg version="1.1" id="Layer_1" xmlns="http://www.w3.org/2000/svg" xmlns:xlink="http://www.w3.org/1999/xlink" x="0px" y="0px"
	 viewBox="0 0 301 418" style="enable-background:new 0 0 301 418;" xml:space="preserve">
<style type="text/css">
	.st0{fill:#FFFFFF;}
	.st1{fill:#6481BE;}
</style>
<g>
	<g>
		<polygon class="st0" points="301,41 256.2,0.1 256.2,41 301,41 		"/>
		<path class="st0" d="M256.2,45h-4v-4V0H7C3.1,0,0,3.1,0,7v404c0,3.9,3.1,7,7,7h287c3.9,0,7-3.1,7-7V45H256.2z"/>
	</g>
</g>
<g>
	<path class="st1" d="M115.9,199.4c-2-0.4-4-0.4-6.1-0.4c-1.2,0-2.5,0-3.7,0c-1.1,0-1.7,0.5-1.9,1.5c-1.1,5.7-2.1,11.3-3.2,17
		c-0.2,1.1,0.2,1.5,1.2,1.5c2.6,0,5.2,0.1,7.8-0.1c3.2-0.3,6.2-1.3,8.2-4.2c1.9-2.9,2.7-6.1,2.7-9.5
		C120.9,201.9,119.2,200,115.9,199.4z"/>
	<path class="st1" d="M199,199.4c-3.4-0.7-6.8-0.3-10.2-0.4c-0.9,0-1.3,0.5-1.5,1.3c-1.1,5.7-2.2,11.4-3.4,17.2
		c-0.2,1,0.2,1.5,1.2,1.5c1.2,0,2.4,0,3.6,0c1.9,0,3.7,0,5.6-0.3c4.6-0.8,7.4-3.4,8.7-7.8c0.5-1.6,0.8-3.2,0.9-4.8
		C204.3,202.5,202.5,200.1,199,199.4z"/>
	<path class="st1" d="M241.3,199.6c-2.7-6.7-7.5-11.8-13.1-16.2c-10.3-7.9-22.1-12.6-34.6-15.9c-14.1-3.7-28.5-5.5-43.1-5.3
		c-12.1-0.1-24,1.1-35.8,3.6c-13.1,2.8-25.7,7-37.1,14.3c-7.3,4.6-13.6,10.3-17.3,18.3c-3.3,7.1-3.3,14.4,0.2,21.5
		c3.1,6.3,7.7,11.1,13.3,15.2c11.7,8.7,25.1,13.4,39,16.6c17.1,3.9,34.4,4.9,51.9,3.5c17-1.4,33.5-4.8,49-12
		c9.4-4.4,18-9.9,24.2-18.5C243.3,217,245,208.6,241.3,199.6z M111.9,227c-3.6,0.2-7.1,0.3-10.7,0.2c-1.6,0-2.4,0.5-2.6,2.1
		c-0.5,3-1.2,6-1.7,9c-0.2,1.3-0.9,1.8-2.2,1.8c-2.3,0-4.5,0-6.8,0c-2.3,0-2.4-0.2-2-2.3c1.4-7.1,2.8-14.2,4.1-21.4
		c1.5-7.8,3.1-15.7,4.6-23.5c0.3-1.6,1-2.2,2.6-2.1c3.2,0.1,6.3,0,10,0c3.7,0.1,7.7-0.2,11.8,0.3c5.5,0.7,10.1,2.8,12.3,8.3
		c1.4,3.5,1.1,7.1,0.3,10.7C129.6,219.9,121.9,226.4,111.9,227z M164.7,227.3c-2.1-0.1-4.3,0-6.5,0c-2.1,0-2.3-0.2-1.9-2.3
		c1.3-6.7,2.6-13.4,3.8-20.1c0.7-3.9-0.5-5.4-4.4-5.6c-2.4-0.1-4.9-0.1-7.3-0.2c-1.9,0-2.5,0.8-2.8,2.4c-1.3,6.7-2.6,13.4-3.9,20
		c-0.3,1.3-0.6,2.7-0.8,4c-0.2,1.1-0.8,1.7-1.9,1.7c-2.5,0-5,0-7.5,0c-1.3,0-1.7-0.6-1.4-1.8c2.2-11.2,4.4-22.5,6.6-33.7
		c0.8-4,1.6-8,2.3-12c0.2-1.1,0.7-1.7,1.9-1.7c2.6,0,5.1,0,7.7,0c1.3,0,1.7,0.6,1.4,1.8c-0.6,3.1-1.2,6.2-1.8,9.4
		c-0.3,1.3,0.1,1.8,1.4,1.8c1.5-0.1,3.1,0,4.6,0c3.8-0.1,7.6,0.1,11.3,1.2c4.5,1.4,6.5,4.1,6.4,8.8c0,2.7-0.8,5.4-1.3,8.1
		c-1,5.4-2.1,10.8-3.1,16.2C167.1,226.7,166.4,227.4,164.7,227.3z M195.5,227c-3.8,0.3-7.6,0.3-11.4,0.2c-1.5,0-2.2,0.6-2.5,2.1
		c-0.5,3.1-1.2,6.1-1.8,9.2c-0.2,1.2-0.8,1.7-2.1,1.7c-2.4,0-4.8-0.1-7.1,0c-1.6,0-1.9-0.6-1.6-2.1c1.3-6.7,2.6-13.5,3.9-20.2
		c1.6-8.2,3.2-16.4,4.7-24.6c0.5-2.4,0.5-2.5,3-2.5c3.1,0,6.2,0,10,0c3.4,0.1,7.5-0.3,11.6,0.3c4.3,0.6,8.3,1.9,10.9,5.8
		c1.5,2.1,2.1,4.4,2.2,6.9C215.9,215.9,207.5,226.1,195.5,227z"/>
</g>
</svg>
